<?xml version="1.0" encoding="UTF-8"?>
<svg id="Calque_2" data-name="Calque 2" xmlns="http://www.w3.org/2000/svg" viewBox="0 0 44.4 44.4">
  <defs>
    <style>
      .cls-1 {
        fill: #f6f7f9;
      }

      .cls-1, .cls-2, .cls-3 {
        stroke-width: 0px;
      }

      .cls-2 {
        fill: #1652f0;
      }

      .cls-3 {
        fill: #fff;
      }
    </style>
  </defs>
  <g id="Calque_1-2" data-name="Calque 1">
    <g>
      <path class="cls-1" d="m44.4,22.2c0,12.26-9.94,22.2-22.2,22.2S0,34.46,0,22.2,9.94,0,22.2,0s22.2,9.94,22.2,22.2Z"/>
      <g>
        <circle class="cls-2" cx="22.2" cy="22.2" r="13.35"/>
        <path class="cls-3" d="m23.43,26.37c.68,0,1.37-.15,1.97-.38l1.29,1.97c-1.14.61-2.35.91-3.64.91-3.87,0-6.75-2.58-6.75-6.67.08-4.1,3.03-6.67,6.83-6.67,1.37,0,2.35.3,3.41.83l-1.21,2.05c-.61-.23-1.29-.38-1.97-.38-2.28,0-4.1,1.44-4.1,4.17,0,2.58,1.74,4.17,4.17,4.17h0Z"/>
      </g>
    </g>
  </g>
</svg>