<?xml version="1.0" encoding="UTF-8"?>
<svg id="Calque_1" data-name="Calque 1" xmlns="http://www.w3.org/2000/svg" viewBox="0 0 54 54">
  <defs>
    <style>
      .cls-1 {
        fill: #000;
      }

      .cls-1, .cls-2 {
        stroke-width: 0px;
      }

      .cls-2 {
        fill: #fff;
      }
    </style>
  </defs>
  <path class="cls-1" d="M49.2,27c0,12.26-9.94,22.2-22.2,22.2S4.8,39.26,4.8,27,14.74,4.8,27,4.8s22.2,9.94,22.2,22.2Z"/>
  <path class="cls-2" d="M36.39,20.85l-8.75-5.04c-.4-.23-.88-.23-1.28,0l-8.75,5.04c-.4.23-.64.65-.64,1.11v10.09c0,.46.25.88.64,1.11l8.75,5.04c.2.11.42.17.64.17.23,0,.45-.06.64-.17l8.75-5.04c.4-.23.64-.65.64-1.11v-10.09c0-.46-.25-.88-.64-1.11h0ZM27.2,26.37c-.12.07-.27.07-.4,0l-8.51-4.9,8.51-4.9c.12-.07.27-.07.4,0l8.51,4.9-8.51,4.9ZM26.36,27.14c.06.04.13.07.2.09v10.06l-8.51-4.9c-.12-.07-.2-.2-.2-.34v-9.81l8.51,4.9Z"/>
</svg>