<?xml version="1.0" encoding="UTF-8"?>
<svg id="Calque_1" data-name="Calque 1" xmlns="http://www.w3.org/2000/svg" viewBox="0 0 54 54">
  <defs>
    <style>
      .cls-1, .cls-2 {
        fill: #fff;
      }

      .cls-3 {
        fill: #dbe7ff;
      }

      .cls-4 {
        fill: rgba(16, 131, 253, .7);
      }

      .cls-2 {
        fill-rule: evenodd;
      }
    </style>
  </defs>
  <path class="cls-2" d="m27,48.54c11.9,0,21.54-9.64,21.54-21.54S38.9,5.46,27,5.46,5.46,15.1,5.46,27s9.64,21.54,21.54,21.54Z"/>
  <path class="cls-3" d="m49.2,27c0,12.26-9.94,22.2-22.2,22.2S4.8,39.26,4.8,27,14.74,4.8,27,4.8s22.2,9.94,22.2,22.2Z"/>
  <g id="finances">
    <polygon id="Shape" class="cls-4" points="29.91 22.86 14.48 32.77 24.09 38.34 30.26 34.38 31.45 32.4 33.35 32.4 39.52 28.43 29.91 22.86"/>
    <polygon id="Shape-2" data-name="Shape" class="cls-4" points="29.91 20.46 14.48 30.37 24.09 35.94 39.52 26.03 29.91 20.46"/>
    <polygon id="Shape-3" data-name="Shape" class="cls-4" points="29.91 18.06 14.48 27.97 24.09 33.54 39.52 23.63 29.91 18.06"/>
    <polygon id="Shape-4" data-name="Shape" class="cls-4" points="29.91 15.66 23.74 19.62 23.74 21.6 20.65 21.6 14.48 25.57 24.09 31.14 39.52 21.23 29.91 15.66"/>
    <polygon id="Shape-5" data-name="Shape" class="cls-1" points="23.88 19.66 20.81 21.63 30.38 27.16 31.92 27.4 33.46 25.19 23.88 19.66"/>
    <polygon id="Shape-6" data-name="Shape" class="cls-3" points="30.29 27.21 30.29 34.34 33.19 32.39 33.19 25.27 30.29 27.21"/>
  </g>
</svg>