<?xml version="1.0" encoding="UTF-8"?>
<svg id="Calque_1" data-name="Calque 1" xmlns="http://www.w3.org/2000/svg" viewBox="0 0 54 54">
  <defs>
    <style>
      .cls-1 {
        fill: #f5afcb;
      }

      .cls-2 {
        fill: #ff5805;
      }

      .cls-3 {
        fill: #ff9b00;
      }

      .cls-4 {
        fill: #009a46;
      }

      .cls-5 {
        fill: #2a3362;
      }

      .cls-6 {
        fill: #fff;
        fill-rule: evenodd;
      }
    </style>
  </defs>
  <path class="cls-6" d="m51,27c0,13.25-10.75,24-24,24S3,40.25,3,27,13.75,3,27,3s24,10.75,24,24Zm-24,21.54c11.9,0,21.54-9.64,21.54-21.54S38.9,5.46,27,5.46,5.46,15.1,5.46,27s9.64,21.54,21.54,21.54Z"/>
  <path class="cls-5" d="m49.2,27c0,12.26-9.94,22.2-22.2,22.2S4.8,39.26,4.8,27,14.74,4.8,27,4.8s22.2,9.94,22.2,22.2Z"/>
  <g>
    <path class="cls-4" d="m12.4,20.24c0-1.55.45-2.88,1.41-3.83l1.66,1.66c-1.85,1.84-.23,7.56,5.02,12.82,5.26,5.26,10.98,6.87,12.82,5.03l1.66,1.66c-3.11,3.11-10.2.9-16.13-5.03-4.11-4.12-6.44-8.79-6.44-12.3Z"/>
    <path class="cls-2" d="m22.86,39c-1.55,0-2.88-.45-3.84-1.41l1.66-1.66c1.84,1.84,7.56.23,12.82-5.03,5.26-5.26,6.87-10.98,5.03-12.82l1.66-1.66c3.11,3.11.9,10.2-5.03,16.13-4.12,4.12-8.79,6.44-12.3,6.44Z"/>
    <path class="cls-1" d="m35.71,30.18c-1.01-2.9-3.06-6-5.79-8.72-5.93-5.93-13.02-8.14-16.13-5.03-.22.22-.03.77.43,1.23.46.46,1.01.65,1.23.43,1.84-1.84,7.56-.23,12.82,5.03,2.49,2.49,4.34,5.27,5.24,7.84.78,2.25.71,4.07-.21,4.98-.22.22-.03.77.43,1.23.46.46,1.01.65,1.23.43,1.59-1.59,1.86-4.23.76-7.4Z"/>
    <path class="cls-3" d="m40.19,16.43c-1.6-1.6-4.23-1.87-7.41-.76-2.9,1-6,3.06-8.72,5.79-5.93,5.93-8.14,13.02-5.03,16.13.22.22.77.03,1.23-.43.46-.46.65-1.01.43-1.23-1.85-1.84-.23-7.56,5.03-12.82,2.49-2.49,5.27-4.34,7.84-5.24,2.25-.78,4.07-.71,4.99.21.22.22.77.03,1.23-.43.46-.46.65-1.01.43-1.23Z"/>
  </g>
</svg>