<?xml version="1.0" encoding="UTF-8"?>
<svg id="Calque_1" data-name="Calque 1" xmlns="http://www.w3.org/2000/svg" viewBox="0 0 54 54">
  <defs>
    <style>
      .cls-1 {
        fill: #f3d259;
      }

      .cls-2 {
        fill: #f9dd6f;
      }

      .cls-3 {
        fill: #f5d867;
      }

      .cls-4 {
        fill: #e7bf2c;
      }

      .cls-5 {
        fill: #e6b411;
      }

      .cls-6 {
        fill: #fae079;
      }

      .cls-7 {
        fill: #edc83e;
      }

      .cls-8 {
        fill: #f0cd4f;
      }

      .cls-9 {
        fill: #fdf38b;
      }

      .cls-10 {
        fill: #fde686;
      }

      .cls-11 {
        fill: #b6a251;
      }

      .cls-12 {
        fill: #dbbf60;
      }

      .cls-13 {
        fill: #222f5a;
      }

      .cls-14 {
        fill: #363a43;
      }

      .cls-15 {
        fill: #727890;
      }

      .cls-16 {
        fill: #fff;
        fill-rule: evenodd;
      }
    </style>
  </defs>
  <path class="cls-16" d="m51,27c0,13.25-10.75,24-24,24S3,40.25,3,27,13.75,3,27,3s24,10.75,24,24Zm-24,21.54c11.9,0,21.54-9.64,21.54-21.54S38.9,5.46,27,5.46,5.46,15.1,5.46,27s9.64,21.54,21.54,21.54Z"/>
  <path class="cls-13" d="m49.2,27c0,12.26-9.94,22.2-22.2,22.2S4.8,39.26,4.8,27,14.74,4.8,27,4.8s22.2,9.94,22.2,22.2Z"/>
  <g>
    <path class="cls-3" d="m28.01,36.94c-.06-.03-.13-.06-.19-.1-.03-.39.08-.79-.1-1.17.39.06.79.12,1.18.17.22.03.47.09.48-.27h0c.7,0,1.43.11,2.03-.55-.49-.05-.91-.18-1.34-.14-.19-.04-.39-.07-.58-.11-.01-.18.08-.3.19-.43.64-.76,1.27-1.53,1.9-2.29.23-.27.22-.44-.16-.55-.29-.08-.61-.12-.85-.35.15.01.3,0,.44.04.24.06.5.07.59-.17.09-.23-.22-.27-.35-.4-.04-.04-.11-.07-.17-.09-.62-.19-1.25-.37-1.87-.56-.28-.09-.62-.07-.8-.38.05,0,.1,0,.14.02.97.26,1.95.5,2.89.88.16.07.47.27.41-.2-.03-.35-.32-.58-.39-.91.06.02.14.02.18.06.22.21.44.43.65.65.17.17.33.16.49-.03.17-.2.09-.31-.11-.4-.13-.05-.13-.17-.13-.29.44.04.86-.02,1.27-.22.52-.25,1.07-.46,1.66-.5.16-.01.2-.07.2-.2,0-.16-.08-.24-.24-.22-.18.02-.35.06-.53.08.06-.3.28-.5.46-.72.35-.44.82-.78,1.01-1.34.18.07.36.15.54.22.39.15.73,0,.93-.41.15.09.3.19.46.26.36.16.59.33.09.62-.1.06-.14.17-.15.29-.29-.03-.44.18-.6.36-.44.51-.85,1.05-1.31,1.56-.25.28-.42.66-.85.75-.26-.04-.51-.09-.77-.13-.3-.18-.34.12-.4.25-.09.2.14.21.26.26.62.25.62.25.21.77-.03.04-.05.08-.08.12-.59-.13-1.18-.27-1.77-.4-.18.15-.07.27.06.36.09.06.2.09.31.14.2.09.51.14.44.42-.07.27-.39.13-.6.16-.14.02-.29-.14-.45,0,.25.25.58.15.83.3.07.03.13.07.2.1-.03.24-.18.41-.33.58-.47.54-.93,1.09-1.38,1.65-.21.26-.15.43.2.41.34-.02.68-.06,1.02-.09,0,0,0,0,0,0-.03.26-.25.33-.44.41-.29.14-.26.29-.05.47,0,.1,0,.19,0,.29-.17.02-.35-.03-.49.1-.2.02-.42-.05-.6.1-.19,0-.37,0-.56,0-.08-.09-.19-.1-.31-.1-.2,0-.4,0-.59,0-.2-.13-.39-.14-.58,0-.19.06-.55-.27-.56.22,0,.28.04.56.06.85-.13-.04-.26-.08-.39-.12,0-.28,0-.55-.02-.83-.02-.22-.19-.29-.38-.3-.21,0-.28.13-.29.32,0,.24,0,.49,0,.73Zm4.15-5.26c.01-.08-.04-.11-.08-.11-.04,0-.09.02-.13.03.03.03.06.08.1.09.03.01.08,0,.11-.01Z"/>
    <path class="cls-14" d="m25.85,36.38c-.61.06-1.07-.32-1.58-.53-.59-.24-1.16-.52-1.63-.97-.51-.48-1.11-.2-1.68-.14-2.18.22-4.35.3-6.44-.54-.12-.05-.23-.12-.34-.19-.03-.13-.06-.26-.09-.39.48,0,.95.16,1.44.07,1.36-.04,2.63-.39,3.86-.97.45-.11.84-.36,1.23-.58.27-.15.4-.1.51.19.36.97.94,1.77,1.79,2.37.07.12.2.16.32.2.06.17.22.2.36.26.17.2.39.33.63.44.55.26,1.09.52,1.64.78Z"/>
    <path class="cls-15" d="m41.21,33.06c.24.19.55.28.81.45.57.38.54,1.4-.03,1.82-.98.74-2.09,1.07-3.23,1.31-1.17.25-2.37.42-3.56.57-1.16.14-2.34.14-3.51.13-.65,0-1.3.07-1.92-.19.33,0,.66,0,.99-.01.1,0,.2,0,.3,0,.19,0,.38,0,.58,0,.2,0,.4,0,.61,0,.16,0,.32-.01.49-.02.15.05.27,0,.39-.09.1,0,.2,0,.3,0,.23,0,.48.09.69-.08.16,0,.33-.01.49-.02.03-.03.06-.05.09-.08h0c.13-.01.29.05.39-.09.16,0,.33-.01.49-.02.13-.06.26-.12.39-.18.25,0,.49-.04.69-.19.17,0,.32-.02.4-.2.22.01.43-.02.59-.19.08,0,.16,0,.19-.09,1.45-.55,2.61-1.46,3.37-2.83Z"/>
    <path class="cls-4" d="m15.52,33.7c-.48.09-.96-.07-1.44-.07-.28-.18-.6-.27-.93-.3-.85-.5-1.66-1.06-2.27-1.86-.76-1.01-.83-2.15-.71-3.33.05-.51.16-1.01.37-1.48.12.08.22.19.38.2,0,.06.04.14.03.19-.25.79-.32,1.59-.23,2.4.1.84.42,1.58,1.08,2.13.25.21.58.57.88.4.29-.16.32-.61.29-.99.1.03.2.06.3.09.25.24.62.2.89.38-.06.28-.14.56-.18.85-.09.53,0,.63.53.63.21,0,.42,0,.63,0-.07.35.37.46.37.77Z"/>
    <path class="cls-9" d="m22.81,16.65c1.04.02,2.08.04,3.03.57.67.38,1.2.89,1.59,1.56.03.04.06.08.09.12,0,0,0,0,0,0,.02.14.03.29.07.43.34,1.1.25,2.17-.09,3.26-.26.81-.69,1.54-1.05,2.3-.16-.03-.25.21-.47.11.44-.75.77-1.53,1.02-2.34.3-.95.45-1.92.04-2.89-.07-.66-.37-1.17-.98-1.48-.17-.49-.62-.71-1.04-.72-.38,0-.27.51-.4.78-.02.04-.02.09-.03.14-.4-.11-.73-.41-1.18-.39,0-.03,0-.06,0-.09.11-.48.18-.93-.45-1.13-.06-.02-.09-.16-.13-.24Z"/>
    <path class="cls-9" d="m39.71,26.73c1.17.76,1.79,1.88,2.03,3.22.08.47,0,.93-.1,1.39-.07.15-.14.29-.21.44-.66,1.4-1.79,2.27-3.2,2.83-.15-.13-.07-.26,0-.4.14-.09.28-.17.41-.26.85-.54,1.63-1.14,2.05-2.1.29-.34.32-.77.38-1.18-.01-.3.08-.61-.08-.9,0-.06,0-.13,0-.19,0-.37-.1-.75-.38-.96-.26-.2-.46.2-.73.24-.06,0-.12.04-.19.06-.19-.3-.39-.59-.58-.89.45-.27.71-.62.53-1.18,0-.03.05-.08.08-.12Z"/>
    <path class="cls-12" d="m26.45,24.88c.37-.76.8-1.49,1.05-2.3.34-1.09.43-2.16.09-3.26-.04-.14-.05-.29-.07-.43.81.79.86,1.84.94,2.87.07.96-.3,1.84-.58,2.73-.16.31-.52.23-.76.38-.23-.06-.45.19-.68,0Z"/>
    <path class="cls-12" d="m38.23,34.61c1.41-.55,2.54-1.43,3.2-2.83.07-.15.14-.29.21-.44.05.62-.23,1.16-.43,1.72-.77,1.37-1.92,2.28-3.38,2.83,0-.33,0-.66,0-.99.14-.09.31-.14.4-.29Z"/>
    <path class="cls-12" d="m25.85,36.38c-.55-.26-1.09-.52-1.64-.78-.24-.11-.45-.24-.63-.44,0-.29,0-.58,0-.87.57.08,1,.52,1.58.6.54.23,1.07.51,1.67.59.05.37-.09.73-.11,1.1-.32.04-.58-.15-.88-.2Z"/>
    <path class="cls-3" d="m30.86,24.31c2.18,0,4.33.25,6.37,1.08,0,.13,0,.25,0,.38-.26-.07-.52-.13-.78-.2-.53-.25-1.08-.44-1.67-.49-.73-.24-1.48-.32-2.25-.31-.55-.18-1.12-.04-1.67-.1,0-.12,0-.24,0-.36Z"/>
    <path class="cls-10" d="m37.24,25.76c0-.13,0-.25,0-.38.91.3,1.74.74,2.47,1.35-.03.04-.09.09-.08.12.18.56-.08.91-.53,1.18-.37-.18-.53-.6-.88-.79.01-.12.05-.23.15-.29.49-.29.27-.46-.09-.62-.16-.07-.3-.18-.46-.26-.19-.12-.43-.12-.59-.3Z"/>
    <path class="cls-10" d="m22.81,16.65c.04.08.07.23.13.24.63.19.55.65.45,1.13-.33,0-.65,0-.98,0q.03-.85-.85-.69c-.11.02-.22.06-.32.09-.26.04-.53.07-.79.11v-.32c.73-.39,1.57-.37,2.36-.56Z"/>
    <path class="cls-7" d="m10.93,26.84c-.16,0-.26-.12-.38-.2.43-1.3,1.09-2.48,1.95-3.54.1.03.2.07.3.1-.62,1.21-1.43,2.32-1.87,3.63Z"/>
    <path class="cls-8" d="m12.8,23.21c-.1-.03-.2-.07-.3-.1.67-1.02,1.52-1.87,2.45-2.65.06.12.16.19.3.2-.82.85-1.63,1.7-2.45,2.55Z"/>
    <path class="cls-8" d="m30.86,24.31c0,.12,0,.24,0,.36-.14.04-.28.11-.42.1-1.13-.05-2.21.22-3.31.39,0-.1,0-.19,0-.29.24-.15.6-.07.76-.38.29.26.59,0,.87-.02.6-.07,1.19-.08,1.79-.08.11,0,.21-.05.32-.08Z"/>
    <path class="cls-3" d="m15.25,20.66c-.14-.01-.24-.08-.3-.2.79-.78,1.7-1.41,2.65-1.97.06.13.17.2.31.21-.15.12-.29.25-.45.35-.43.28-.9.49-1.23.91-.32.23-.65.47-.97.7Z"/>
    <path class="cls-2" d="m17.91,18.7c-.14-.01-.24-.08-.31-.21.88-.57,1.81-1.04,2.84-1.28,0,.11,0,.21,0,.32-.17.24-.47.22-.69.38-.62.14-1.14.46-1.67.79-.06,0-.13,0-.19,0Z"/>
    <path class="cls-12" d="m27.72,35.68c.18.38.06.78.1,1.17-.24.06-.47-.02-.69-.1,0-.19.02-.39,0-.58-.04-.38.11-.54.49-.49.03,0,.07,0,.1,0Z"/>
    <path class="cls-12" d="m28.01,36.94c0-.24,0-.49,0-.73,0-.18.08-.32.29-.32.19,0,.36.08.38.3.02.27.01.55.02.83-.25.12-.46-.1-.69-.08Z"/>
    <path class="cls-12" d="m29.09,37.14c-.02-.28-.06-.57-.06-.85,0-.49.36-.16.56-.22.19.34.06.71.1,1.06-.2,0-.39,0-.59,0Z"/>
    <path class="cls-6" d="m29.68,37.13c-.03-.35.1-.72-.1-1.06.19-.14.39-.14.58,0-.26.76-.13.99.58.98,0,.03,0,.07,0,.1-.33,0-.66,0-.99.01-.03-.01-.06-.02-.09-.03Z"/>
    <path class="cls-3" d="m27.61,35.67c-.38-.05-.53.11-.49.49.02.19,0,.38,0,.58-.13-.05-.27-.11-.4-.16.02-.37.16-.72.11-1.1.27,0,.54.05.78.19Z"/>
    <path class="cls-15" d="m13.15,33.32c.33.03.65.12.93.3.03.13.06.26.09.39-.43-.09-.82-.24-1.02-.69Z"/>
    <path class="cls-12" d="m27.52,18.89s-.06-.08-.09-.12c.03.04.06.08.09.12Z"/>
    <path class="cls-8" d="m38.22,27.24c.36.19.52.61.88.79.19.3.39.59.58.89.04.25.08.51.12.76-.22.02-.34.18-.47.32-.4.45-.79.91-1.18,1.37-.66.79-1.31,1.57-1.97,2.36-.06.08-.13.16-.08.26.06.12.16.08.26.06.1-.02.19-.03.29-.05h0c-.07.25-.3.32-.48.44-.34.23-.74.39-.99.74-.64.19-1.29.34-1.96.3.05-.06.11-.12.16-.18.19-.21.7-.26.62-.5-.11-.31-.5.06-.78-.02,0,0,0,0,0,0-.02-.23.06-.4.22-.57.28-.31.52-.67.81-.97.36-.36.49-.67-.14-.94.12-.04.17-.07.21-.06.27.06.58.16.76-.11.2-.3-.29-.33-.3-.58.13.05.27.1.4.16.11.05.25.19.33.03.09-.17-.08-.26-.21-.32-.2-.1-.46-.07-.62-.26.03-.04.05-.08.08-.12.41-.52.4-.52-.21-.77-.12-.05-.34-.06-.26-.26.06-.13.1-.44.4-.25-.08.24.13.27.26.34.17.09.37.13.47.33.05.09.14.15.25.09.12-.07.1-.19.08-.31-.02-.17-.18-.22-.29-.32.42-.09.6-.47.85-.75.45-.5.87-1.04,1.31-1.56.15-.18.31-.39.6-.36Z"/>
    <path class="cls-6" d="m28.4,29.6c.18.31.52.29.8.38.62.19,1.25.37,1.87.56.06.02.13.05.17.09.13.13.44.17.35.4-.09.24-.35.23-.59.17-.14-.03-.29-.03-.44-.04,0,0,0,0,0,0-.08-.09-.19-.1-.3-.1-.59.03-1.09-.3-1.65-.42-.26-.06-.44-.03-.61.17-.49.58-1,1.15-1.48,1.75-.31.37-.69.69-.88,1.16-.26-.1-.52-.2-.78-.3-.1-.09-.2-.19-.3-.28.04-.24.18-.41.33-.58.42-.48.85-.94,1.22-1.46.44-.61.87-1.13,1.72-.73,0,0,.03-.01.05-.03-.02-.25-.43-.28-.37-.51.07-.26.43-.04.59-.23.06,0,.13,0,.19,0,.03,0,.06,0,.1,0Z"/>
    <path class="cls-6" d="m30.56,31.16c.24.23.56.27.85.35.39.11.39.27.16.55-.64.76-1.27,1.53-1.9,2.29-.11.13-.2.26-.19.43-.56-.1-1.11-.19-1.67-.29,0-.24.11-.43.27-.61.44-.5.91-.98,1.3-1.52.29-.41.8-.65.89-1.2.1,0,.2,0,.29,0h0Z"/>
    <path class="cls-6" d="m36.36,26.25c-.18.56-.66.9-1.01,1.34-.18.23-.4.42-.46.72,0,0,0,0,0,0-.03.03-.07.05-.1.08-.48.14-.94.33-1.39.56-.35.18-.7.23-1.07.04.23-.55.71-.92,1.05-1.39.45-.63,1.09-1.12,1.41-1.85.43.1.85.19,1.28.29.1.07.2.14.29.2Z"/>
    <path class="cls-1" d="m34.78,31.56c0,.25.5.28.3.58-.18.27-.49.18-.76.11-.04,0-.09.02-.21.06.63.27.5.58.14.94-.3.3-.53.65-.81.97-.15.17-.24.34-.22.57-.34.03-.68.08-1.02.09-.35.02-.42-.15-.2-.41.45-.56.91-1.11,1.38-1.65.15-.18.3-.34.33-.58.03-.01.05-.03.08-.04-.07-.13-.19-.03-.28-.06-.24-.15-.58-.05-.83-.3.16-.14.31.01.45,0,.21-.02.53.11.6-.16.07-.27-.24-.33-.44-.42-.1-.05-.22-.08-.31-.14-.13-.09-.24-.21-.06-.36.25.33.63.38.98.5.07.03.13.06.2.09.03,0,.07,0,.1,0,.03.03.07.06.1.09l.48.11Z"/>
    <path class="cls-10" d="m31.45,29.39c.08.33.37.56.39.91-1.37-.31-2.71-.73-4.03-1.2.1-.2.2-.39.29-.59.33.04.65.07.98.11.35.28.79.28,1.19.38.22.05.42.31.68.11.23,0,.28.27.49.29Z"/>
    <path class="cls-9" d="m27.82,34.5c.56.1,1.11.19,1.67.29.19.04.39.07.58.11-.09.17-.25.24-.42.28-.2.06-.27.2-.27.39,0,0,0,0,0,0-.9-.08-1.77-.3-2.64-.51.05-.34.42-.35.58-.57.16-.12.33-.03.49,0Z"/>
    <path class="cls-6" d="m33.21,35.49c.68.04,1.32-.11,1.96-.3.1,0,.2,0,.3,0,0,.1,0,.19,0,.29-.03.06-.07.13-.1.19-.44.26-.5.49-.29,1.09-.1.14-.26.08-.39.11,0-.21,0-.42,0-.63,0-.17,0-.34-.23-.35-.2-.01-.36.08-.41.27-.07.27-.08.55.07.81-.21.17-.46.07-.69.08.36-.2.32-.54.28-.85-.04-.29-.29-.18-.47-.21-.17,0-.34,0-.51,0,0-.1,0-.19,0-.29.16-.06.33-.13.49-.19Z"/>
    <path class="cls-7" d="m27.81,29.1c1.32.47,2.66.89,4.03,1.2.06.46-.25.27-.41.2-.94-.38-1.91-.62-2.89-.88-.05-.01-.1-.01-.14-.02-.03,0-.06,0-.1,0-.07-.03-.13-.06-.2-.09-.05,0-.1-.01-.14-.02-.48-.1-.99-.31-1.15.44-.03.13-.13.12-.23.07-.13-.06-.13-.16-.1-.29.16-.67.42-.82,1.09-.64.08.02.16.02.24.03Z"/>
    <path class="cls-6" d="m31.45,29.39c-.21-.02-.26-.3-.49-.29.04-.31.25-.61.04-.93-.05-.08-.04-.2.07-.25.12-.05.18.05.23.13.16.26.38.49.47.8.07.22.2.38.46.36.1.06.2.12.3.19,0,.12,0,.23.13.29.21.09.29.2.11.4-.16.19-.32.2-.49.03-.22-.22-.43-.44-.65-.65-.04-.04-.12-.04-.18-.06Z"/>
    <path class="cls-8" d="m26.74,35.07c.87.21,1.74.43,2.64.51-.01.36-.26.3-.48.27-.4-.05-.79-.12-1.18-.17-.03,0-.07,0-.1,0-.24-.14-.51-.19-.78-.19-.6-.08-1.12-.36-1.67-.59.03-.1.07-.2.1-.3.19.03.39.07.58.1.3.13.6.25.9.38Z"/>
    <path class="cls-4" d="m32.53,29.39c-.1-.06-.2-.12-.3-.19-.03-.06-.06-.12-.09-.18.06,0,.13,0,.19-.01.36.19.72.14,1.07-.04.45-.23.91-.42,1.39-.56.03-.03.07-.05.1-.08,0,0,0,0,0,0,.18-.03.35-.06.53-.08.16-.02.24.06.24.22,0,.13-.04.19-.2.2-.59.04-1.14.25-1.66.5-.42.2-.83.26-1.27.22Z"/>
    <path class="cls-1" d="m36.36,26.25c-.1-.07-.2-.14-.29-.2,0-.27.31-.29.4-.49.26.07.52.13.78.2.16.18.4.18.59.3-.21.41-.54.56-.93.41-.18-.07-.36-.14-.54-.22Z"/>
    <path class="cls-6" d="m29.38,35.57c0-.19.06-.33.27-.39.17-.05.33-.12.42-.28.44-.04.85.09,1.34.14-.6.66-1.33.55-2.03.54Z"/>
    <path class="cls-4" d="m33.9,31.26c-.35-.12-.74-.17-.98-.5.59.13,1.18.27,1.77.4.16.19.42.16.62.26.14.06.3.15.21.32-.09.16-.22.03-.33-.03-.13-.06-.27-.11-.4-.16-.16-.04-.32-.07-.48-.11-.03-.03-.07-.06-.1-.09-.03,0-.07,0-.1,0-.07-.03-.13-.06-.2-.09Z"/>
    <path class="cls-12" d="m30.75,37.04c-.71.01-.85-.22-.58-.98.2,0,.4,0,.59,0,0,.32,0,.65-.01.97Z"/>
    <path class="cls-1" d="m33.21,35.49c-.16.06-.33.13-.49.19-.21-.18-.24-.34.05-.47.19-.09.41-.15.44-.41.27.08.67-.29.78.02.08.23-.43.29-.62.5-.05.06-.11.12-.16.18Z"/>
    <path class="cls-12" d="m31.64,37.15c-.19,0-.38,0-.58,0,0-.33,0-.65,0-.98.19,0,.37,0,.56,0,0,.33,0,.65,0,.98Z"/>
    <path class="cls-9" d="m32.72,35.97c.17,0,.34,0,.51,0-.2.34-.08.71-.11,1.07-.12.08-.24.14-.39.09,0-.2-.01-.39,0-.59.02-.37-.14-.51-.5-.47h0c.14-.14.32-.08.49-.11Z"/>
    <path class="cls-9" d="m31.64,37.15c0-.33,0-.65,0-.98.18-.16.4-.09.6-.1,0,0,0,0,0,0-.27.36-.29.72.01,1.08-.2,0-.4,0-.61,0Z"/>
    <path class="cls-4" d="m35.47,29.9c.1.1.26.15.29.32.02.11.04.24-.08.31-.1.06-.2,0-.25-.09-.1-.2-.3-.24-.47-.33-.13-.07-.34-.1-.26-.34.26.04.51.09.77.13Z"/>
    <path class="cls-9" d="m31.07,36.17c0,.33,0,.65,0,.98-.1,0-.2,0-.3,0,0-.03,0-.07,0-.1,0-.32,0-.65,0-.97.11,0,.22,0,.31.1Z"/>
    <path class="cls-1" d="m32.16,31.68s-.08.02-.11.01c-.04-.01-.07-.06-.1-.09.04-.01.09-.03.13-.03.05,0,.09.03.08.11Z"/>
    <path class="cls-8" d="m33.51,32.14c.09.03.21-.07.28.06-.03.01-.05.03-.08.04-.07-.03-.13-.07-.2-.1Z"/>
    <path class="cls-11" d="m22.9,34.7c-.84-.6-1.43-1.4-1.79-2.37-.11-.29-.24-.34-.51-.19-.4.22-.78.47-1.23.58-.22-.02-.27-.17-.3-.36-.05-.28-.12-.55-.19-.83,0-.03,0-.06-.01-.09.13-.31.2-.64.2-.98.08-.14.11-.3.11-.47.41-.84.88-1.64,1.46-2.38.33-.25.62-.56.89-.87.33-.15.59-.39.88-.61.35-.1.7-.32,1.08-.1,0,.03.01.06.02.1-.28.35-.7.51-1.03.8-1.2,1.07-2.25,2.71-1.32,4.72.24.53.55,1.03,1.04,1.38.08.42.6.47.7.86,0,.26,0,.52,0,.79Z"/>
    <path class="cls-12" d="m18.89,31.54c.06.28.14.55.19.83.03.19.08.34.3.36-1.22.57-2.5.93-3.86.97,0-.31-.44-.42-.38-.77.5-.05.99-.15,1.48-.3.68-.09,1.27-.43,1.89-.69.18-.08.36-.16.38-.39Z"/>
    <path class="cls-12" d="m22.9,34.7c0-.26,0-.52,0-.79.13.06.27.13.4.19-.03.27.06.54-.08.8-.12-.04-.25-.08-.32-.2Z"/>
    <path class="cls-4" d="m23.22,34.9c.14-.25.05-.53.08-.8.13.01.22.07.28.18,0,.29,0,.58,0,.87-.14-.06-.3-.09-.36-.26Z"/>
    <path class="cls-3" d="m35.37,35.67c.03-.06.07-.13.1-.19.52.05.95-.31,1.46-.3.06.33-.1.68.12.99-.08.18-.23.2-.4.2-.13-.15-.09-.34-.1-.51-.01-.16.02-.36-.22-.36-.2,0-.33.14-.35.33-.02.24-.01.48-.02.73-.13.06-.26.12-.39.18-.08-.35.17-.77-.2-1.07Z"/>
    <path class="cls-12" d="m34.11,36.96c-.14-.26-.14-.54-.07-.81.05-.19.21-.28.41-.27.23.01.23.19.23.35,0,.21,0,.42,0,.63,0,0,0-.01,0-.01-.03.03-.06.05-.09.08-.16,0-.33.01-.49.02Z"/>
    <path class="cls-12" d="m32.24,37.15c-.3-.36-.28-.72-.01-1.08.35-.04.52.1.5.47-.01.19,0,.39,0,.59-.16,0-.32.01-.49.02Z"/>
    <path class="cls-12" d="m37.05,36.17c-.21-.31-.06-.66-.12-.99.15-.09.32-.11.49-.11.24.26-.03.64.21.9-.16.17-.37.21-.59.19Z"/>
    <path class="cls-12" d="m35.96,36.56c0-.24,0-.49.02-.73.02-.2.15-.33.35-.33.24,0,.21.2.22.36.01.17-.03.36.1.51-.2.16-.44.2-.69.19Z"/>
    <path class="cls-12" d="m35.37,35.67c.37.3.12.71.2,1.07-.16,0-.33.01-.49.02-.21-.6-.15-.83.29-1.09Z"/>
    <path class="cls-12" d="m33.12,37.04c.03-.36-.09-.73.11-1.07.18.03.43-.08.47.21.04.32.09.66-.28.85-.1,0-.2,0-.3,0Z"/>
    <path class="cls-1" d="m37.64,35.98c-.24-.26.02-.64-.21-.9.11-.11.24-.17.4-.19,0,.33,0,.66,0,.99-.04.09-.12.09-.19.09Z"/>
    <path class="cls-6" d="m34.6,36.94s.06-.05.09-.08c-.03.03-.06.05-.09.08Z"/>
    <path class="cls-3" d="m14.17,31.45c-.27-.18-.64-.14-.89-.38.08-2.33-.1-4.66-.1-6.99.41-.75.93-1.41,1.57-1.96.05,1.14.15,2.29.1,3.43,0,.14-.01.29.1.41-.09.15-.22.28-.22.47-.47.18-.54.34-.28.61.41.11.24-.22.3-.39h0c.07-.04.14-.07.21-.11.28.19-.09.66.45.81-.78-.06-.66.42-.66.83,0,.67.02,1.34,0,2.01-.02.42.16.84.01,1.26-.2,0-.39,0-.59,0Z"/>
    <path class="cls-5" d="m14.75,22.12c-.65.56-1.16,1.22-1.57,1.96-.77,1-1.21,2.15-1.46,3.38-.29,1.43.1,2.61,1.26,3.52.02.37,0,.82-.29.99-.3.17-.63-.19-.88-.4-.66-.55-.98-1.29-1.08-2.13-.1-.82-.02-1.62.23-2.4.02-.06-.02-.13-.03-.19.44-1.31,1.25-2.42,1.87-3.63.82-.85,1.63-1.7,2.45-2.55.32-.23.65-.47.97-.7.2.23-.06.47,0,.7-.5.48-1.06.9-1.48,1.46Z"/>
    <path class="cls-1" d="m12.98,30.98c-1.16-.91-1.55-2.09-1.26-3.52.25-1.23.69-2.38,1.46-3.38,0,2.33.18,4.66.1,6.99-.1-.03-.2-.06-.3-.09Z"/>
    <path class="cls-7" d="m14.17,31.45c.2,0,.39,0,.59,0,0,0,0,0,0,0,.03,0,.07,0,.1,0,.13,0,.25,0,.38,0q-.06.92.84.87s.03,0,.05,0c.21.02.49-.07.49.29-.48.15-.97.25-1.48.3-.21,0-.42,0-.63,0-.53,0-.62-.1-.53-.63.05-.28.12-.56.18-.85Z"/>
    <path class="cls-7" d="m27.13,24.88c0,.1,0,.19,0,.29-1.01.28-1.99.65-2.95,1.1-.09-.08-.1-.18-.1-.29.19-.16.42-.23.65-.31.52-.19.84-.78.74-1.39-.21.1-.23.42-.51.41-.02-.23.07-.48-.09-.69,0,0,0,0,0,0,0-1.77,0-3.54.01-5.3.22.17.45.34.67.5.4.67.68,1.4.78,2.2.34-.53.36-1.14.7-1.62.41.97.26,1.94-.04,2.89-.25.8-.57,1.58-1.02,2.34.22.09.31-.15.47-.11.23.18.45-.07.68,0Z"/>
    <path class="cls-1" d="m23.5,26.06c-.38-.23-.73,0-1.08.1-.02-.59-.14-1.18-.1-1.78,0-.13-.03-.34-.15-.31-.35.08-.41-.26-.63-.36.28-.16.56-.14.83,0,.23.12.44.16.7-.03-.4-.26-.79-.45-1.24-.46,0-.11.01-.23,0-.34-.01-.15.07-.36-.11-.44-.18-.07-.26.14-.37.24-.27.24-.37.65-.79.73.04-.16.07-.32.11-.48.17-.02.27-.12.29-.3.66-.54,1.31-1.11,1.86-1.77-.09-.32-.34-.29-.58-.28-.16-.82-.09-1.64-.1-2.46.1-.03.19-.06.29-.09.33,0,.65,0,.98,0,0,.03,0,.06,0,.09,0,1.62.16,3.23.1,4.85,0,.16.05.32.05.48.03.87.14,1.75-.05,2.62Z"/>
    <path class="cls-8" d="m23.5,26.06c.2-.87.09-1.75.05-2.62,0-.16-.06-.32-.05-.48.06-1.62-.09-3.23-.1-4.85.44-.02.78.28,1.18.39.06.03.13.07.19.1,0,1.61,0,3.22,0,4.83,0,.19-.05.4.09.56,0,0,0,0,0,0,.05.23-.1.48.09.69.27,0,.3-.32.51-.41.1.6-.22,1.2-.74,1.39-.23.08-.46.15-.65.31-.19.06-.38.12-.57.19,0-.03-.01-.06-.02-.1Z"/>
    <path class="cls-1" d="m27.03,19.77c-.35.48-.36,1.09-.7,1.62-.1-.8-.38-1.52-.78-2.2.42-.16.34-.6.5-.91.61.31.91.82.98,1.48Z"/>
    <path class="cls-2" d="m26.05,18.29c-.17.3-.08.74-.5.91-.22-.17-.45-.34-.67-.5-.04-.03-.07-.06-.11-.09-.06-.03-.13-.07-.19-.1,0-.05.01-.1.03-.14.13-.27.03-.79.4-.78.42,0,.87.22,1.04.72Z"/>
    <path class="cls-7" d="m35.47,35.19c-.1,0-.2,0-.3,0,.25-.36.65-.51.99-.74.18-.12.41-.19.48-.44.03,0,.05-.01.08-.02,0-.01-.01-.03-.02-.04-.02.02-.04.04-.06.05-.1.02-.19.03-.29.05-.1.02-.2.06-.26-.06-.05-.1.02-.19.08-.26.65-.79,1.31-1.58,1.97-2.36.39-.46.78-.92,1.18-1.37.13-.14.25-.3.47-.32.12.15.08.32.09.49-.04.36-.07.72-.11,1.09-.2.31-.39.63-.59.94-.05.08-.12.17-.03.26.09.08.18,0,.26-.05.28-.17.55-.34.82-.51.14-.09.26-.21.42-.05-.41.96-1.2,1.56-2.05,2.1-.14.09-.28.17-.41.26-.89.39-1.8.75-2.75.99Z"/>
    <path class="cls-8" d="m40.68,31.85c-.16-.16-.29-.04-.42.05-.27.17-.54.34-.82.51-.08.05-.17.12-.26.05-.09-.08-.02-.18.03-.26.2-.31.39-.63.59-.94.49-.06.78-.54,1.27-.59-.06.42-.09.84-.38,1.18Z"/>
    <path class="cls-6" d="m39.9,30.17c-.02-.17.02-.34-.09-.49-.04-.26-.08-.51-.12-.76.06-.02.12-.05.19-.05.26-.04.46-.45.73-.24.28.22.37.59.38.96,0,.06,0,.13,0,.2-.42-.02-.66.44-1.08.4Z"/>
    <path class="cls-1" d="m39.9,30.17c.42.04.66-.42,1.08-.4.17.29.07.6.08.9-.49.05-.78.53-1.27.59.04-.36.07-.72.11-1.09Z"/>
    <path class="cls-10" d="m35.47,35.19c.95-.24,1.85-.59,2.75-.99-.07.13-.14.27,0,.4-.09.15-.26.2-.4.29-.15.02-.29.07-.4.19-.17,0-.34.02-.49.11-.51,0-.94.35-1.46.3,0-.1,0-.19,0-.29Z"/>
    <path class="cls-7" d="m23.59,34.29c-.06-.11-.15-.17-.28-.18-.13-.06-.27-.13-.4-.19-.11-.39-.63-.45-.7-.86.03-.19.14-.31.3-.41.27-.16.54-.33.81-.5.09.04.19.07.28.11.18.46.6.66.98.89.1.09.2.19.3.28.07.35-.63.34-.38.7.16.23.5.32.77.48-.03.1-.07.2-.1.3-.57-.08-1-.52-1.58-.6Z"/>
    <path class="cls-5" d="m24.18,26.26c.95-.44,1.93-.81,2.95-1.1,1.1-.18,2.19-.44,3.31-.39.14,0,.28-.07.42-.1.56.07,1.13-.08,1.67.1-.08.21-.36.26-.41.49-.18,0-.35,0-.53.02-.54.04-1.09-.09-1.62.09-.26.04-.53.07-.79.11-.59-.02-1.13.18-1.67.36-1.11.21-2.12.66-3.04,1.3-1.4.98-2.2,2.22-1.75,4.01-.87.7-1.02.65-1.22-.45-.22-1.17.26-2.13.99-2.99.49-.57,1.12-.98,1.7-1.46Z"/>
    <path class="cls-4" d="m32.13,25.26c.05-.23.33-.28.41-.49.76,0,1.52.07,2.25.31-.09.23-.38.27-.49.49-.59-.06-1.18-.12-1.76-.17-.13-.01-.26-.03-.39-.04,0-.03,0-.06,0-.09Z"/>
    <path class="cls-7" d="m34.29,25.57c.11-.21.4-.25.49-.49.59.04,1.14.23,1.67.49-.09.2-.39.22-.4.49-.43-.1-.85-.19-1.28-.29-.16-.07-.33-.13-.49-.2Z"/>
    <path class="cls-1" d="m19.76,17.91c.21-.16.52-.14.69-.38.26-.04.52-.07.79-.11,0,.1,0,.2,0,.29,0,.07,0,.13,0,.2,0,.03,0,.07,0,.1-.12.02-.18.08-.19.2-.37.11-.75.19-1.08.39-.13.03-.26.06-.4.09.07-.26.13-.52.2-.78Z"/>
    <path class="cls-2" d="m21.23,18.01s0-.07,0-.1c.08-.06.08-.13,0-.2,0-.1,0-.2,0-.29.11-.03.21-.07.32-.09q.88-.16.85.69c-.1.03-.19.06-.29.09-.3-.02-.6.05-.89-.1Z"/>
    <path class="cls-4" d="m16.23,20.65c-.07-.23.2-.47,0-.7.33-.41.8-.63,1.23-.91.16-.1.3-.23.45-.35.06,0,.13,0,.19,0-.03.23-.06.46-.09.7-.39.44-.99.62-1.38,1.06-.13.07-.26.14-.39.2Z"/>
    <path class="cls-7" d="m18,19.39c.03-.23.06-.46.09-.7.52-.33,1.05-.65,1.67-.79-.07.26-.13.52-.2.78-.29.17-.69.15-.89.48-.22.07-.45.15-.67.22Z"/>
    <path class="cls-2" d="m29.19,25.48c.26-.04.53-.07.79-.11.29,0,.59,0,.88.01-.15.37-.48.6-.69.92-.39.59-1.03,1-1.27,1.7-.26-.07-.52-.15-.78-.21-.26-.06-.41.13-.45.32-.05.26.2.17.34.19.03.07.07.13.1.2-.1.2-.2.39-.29.59-.08-.01-.16-.01-.24-.03-.67-.18-.92-.03-1.09.64-.03.13-.03.22.1.29.1.05.2.06.23-.07.15-.75.67-.54,1.15-.44.05,0,.1.01.14.02,0,.03,0,.06,0,.09-.16.19-.52-.03-.59.23-.06.23.35.26.37.51-.02.01-.04.03-.05.03-.85-.4-1.29.12-1.72.73-.37.51-.8.98-1.22,1.46-.15.18-.29.35-.33.58-.39-.23-.8-.43-.98-.89.11-.18.2-.38.34-.54.92-1.09,1.86-2.18,2.78-3.27.83-.98,1.65-1.97,2.48-2.96Z"/>
    <path class="cls-10" d="m27.82,34.5c-.16-.02-.33-.12-.49,0-.21-.32-.59-.26-.89-.39-.29-.08-.55-.2-.78-.39.19-.47.57-.78.88-1.16.48-.59.99-1.16,1.48-1.75.17-.2.35-.23.61-.17.56.12,1.06.45,1.65.42,0,.03,0,.06,0,.1-.09.55-.6.8-.89,1.2-.38.54-.86,1.02-1.3,1.52-.16.18-.27.37-.27.61Z"/>
    <path class="cls-3" d="m25.65,33.72c.23.19.5.31.78.39-.12.27-.47.32-.59.59-.19-.03-.39-.07-.58-.1-.26-.15-.61-.25-.77-.48-.25-.36.44-.35.38-.7.26.1.52.2.78.3Z"/>
    <path class="cls-3" d="m30.27,31.16s0-.06,0-.1c.11,0,.22,0,.3.1-.1,0-.2,0-.29,0Z"/>
    <path class="cls-3" d="m28.11,29.6s0-.06,0-.09c.07.03.13.06.2.09-.06,0-.13,0-.19,0Z"/>
    <path class="cls-10" d="m34.29,25.57c.16.07.33.13.49.2-.32.73-.96,1.22-1.41,1.85-.34.47-.82.84-1.05,1.39-.06,0-.13,0-.19.01-.2-.53-.5-1-.91-1.39-.06-.16-.12-.32-.19-.49.62-.48,1.03-1.13,1.49-1.75.59.06,1.18.12,1.76.17Z"/>
    <path class="cls-3" d="m27.72,24.94s-.05.04-.07.06c.02-.02.05-.04.07-.06Z"/>
    <path class="cls-8" d="m34.2,31.36s.07.06.1.09c-.03-.03-.07-.06-.1-.09Z"/>
    <path class="cls-3" d="m31.23,27.62c.41.39.71.86.91,1.39.03.06.06.12.09.18-.26.02-.39-.14-.46-.36-.1-.3-.31-.53-.47-.8-.05-.08-.12-.18-.23-.13-.11.05-.12.17-.07.25.22.33,0,.62-.04.93-.26.2-.46-.06-.68-.11-.4-.1-.84-.1-1.19-.38.1-.07.2-.13.3-.2.07,0,.13,0,.2.01.03.03.07.05.1.08.06,0,.13,0,.19.01l.11.08c.28-.01.56.24.85.02.11-.22-.15-.33-.16-.51.23-.11.15-.58.56-.48Z"/>
    <path class="cls-1" d="m29.39,28.41c-.1.07-.2.13-.3.2-.33-.04-.65-.07-.98-.11-.03-.07-.07-.13-.1-.2.5-.41.93,0,1.38.11Z"/>
    <path class="cls-6" d="m25.85,34.7c.12-.27.47-.32.59-.59.3.13.68.07.89.39-.16.22-.53.24-.58.57-.3-.13-.6-.25-.9-.38Z"/>
    <path class="cls-10" d="m19.19,30.01c0,.16-.02.32-.11.47-.38,0-.66.26-.99.39-.39.13-.79.26-1.18.4-.1,0-.19,0-.29-.01,0-.53.08-1.09-.04-1.6-.19-.85.05-1.48.67-2.04.28-.25.5-.56.44-.98.1-.19.21-.39.31-.58,0,0,.02-.02.02-.03,0-.02,0-.04-.01-.06l-.03-.49c.14-.2,0-.32-.13-.44-.06-.06-.16-.05-.21.03-.05.08,0,.15.05.21-.06.25.17.53-.02.75-.41.47-.75,1.02-1.25,1.42-.44-.78,0-1.39.48-1.96-.26-.12-.32.23-.55.09.07-.32.39-.53.36-.88.31-.38.67-.72.89-1.17.11-.02.17-.09.21-.2.43-.03.57-.45.88-.64.09-.06.2-.17.3-.08.14.11-.03.19-.06.29-.04.18-.28.26-.25.49.5-.34.62-.28.67.32,0,.06,0,.13,0,.19-.33.1-.65.2-.98.3-.04.03-.07.06-.11.1-.13.04-.22.11-.11.24.13.15.31.13.5.13.49-.02.54.07.37.52-.11.28-.19.56-.13.86.14.66.19,1.32.18,1.99-.02,1,0,1-.87.58,0-.06,0-.13,0-.19.17-.06.2-.16.08-.3,0-.16,0-.33,0-.49.14-.18.13-.38-.02-.53-.2-.21-.27-.07-.28.14-.11.54-.25,1.08.1,1.58.17.1.33.21.51.29.4.18.64.44.59.91Z"/>
    <path class="cls-6" d="m19.19,30.01c.05-.46-.19-.73-.59-.91-.18-.08-.34-.19-.51-.29.04-.07.08-.14.12-.21.87.42.85.42.87-.58.01-.67-.04-1.33-.18-1.99-.06-.3.02-.58.13-.86.18-.45.12-.54-.37-.52-.19,0-.37.03-.5-.13-.11-.13-.01-.2.11-.24.23.31.47.2.7.01.03,0,.06,0,.1,0,.11,0,.21,0,.3-.09.13,0,.25-.01.38-.02.13-.06.26-.13.4-.17.09-.03.26,0,.23.09-.16.51.24.92.19,1.44-.07.69-.12,1.4.07,2.09-.58.74-1.05,1.54-1.46,2.38Z"/>
    <path class="cls-4" d="m24.18,26.26c-.58.47-1.21.88-1.7,1.46-.73.86-1.21,1.82-.99,2.99.21,1.1.35,1.14,1.22.45.09.1.18.21.28.31.1.23.21.45.31.68-.27.17-.54.34-.81.5-.16.1-.27.22-.3.41-.49-.35-.8-.85-1.04-1.38-.93-2.01.12-3.65,1.32-4.72.33-.29.75-.45,1.03-.8.19-.06.38-.12.57-.19,0,.11.01.21.1.29Z"/>
    <path class="cls-2" d="m20.65,27.63c-.19-.69-.14-1.4-.07-2.09.05-.52-.36-.93-.19-1.44.03-.1-.14-.12-.23-.09-.14.04-.26.11-.4.17.12-.41.55-.5.79-.78.42-.08.53-.49.79-.73.11-.1.19-.32.37-.24.18.07.1.28.11.44,0,.11,0,.23,0,.34-.29.1-.59.2-.88.3-.32.13-.16.27,0,.4.04.1.06.27.14.3.42.18.35.53.36.87,0,.57-.04,1.14.11,1.7-.27.31-.56.62-.89.87Z"/>
    <path class="cls-3" d="m21.54,26.76c-.15-.56-.1-1.13-.11-1.7,0-.33.07-.69-.36-.87-.07-.03-.09-.2-.14-.3.16-.01.34.03.4-.18.06,0,.13,0,.19-.01.22.1.28.44.63.36.12-.03.16.18.15.31-.04.6.08,1.19.1,1.78-.28.22-.55.45-.88.61Z"/>
    <path class="cls-8" d="m16.62,32.63c0-.37-.28-.27-.49-.29.2-.07.39-.13.59-.2.48-.11.94-.26,1.37-.49.26-.07.52-.13.78-.2,0,.03,0,.06.01.09-.03.23-.2.32-.38.39-.62.27-1.2.61-1.89.69Z"/>
    <path class="cls-6" d="m18.88,31.45c-.26.07-.52.13-.78.2-.18-.26.08-.52,0-.79.33-.13.61-.39.99-.39,0,.34-.07.66-.2.98Z"/>
    <path class="cls-6" d="m17.7,26.64c.06.42-.15.73-.44.98-.62.55-.87,1.19-.67,2.04.11.51.03,1.07.04,1.6-.44.18-.91.21-1.38.21-.13,0-.25,0-.38,0-.03,0-.07,0-.1,0,0,0,0,0,0,0,.15-.42-.03-.84-.01-1.26.03-.67,0-1.34,0-2.01,0-.41-.12-.89.66-.83-.53-.15-.16-.63-.45-.81,0-.03,0-.06,0-.09.03-.03.06-.07.1-.1.06,0,.13,0,.19,0,.04.04.07.03.09-.01.03-.19.17-.31.3-.43.31-.31.58-.65.79-1.03l.29-.2c.03.35-.29.56-.36.88.23.14.29-.21.55-.09-.47.58-.92,1.18-.48,1.96-.06.1-.11.19-.17.29-.07.14-.34.26-.09.43.2.14.28-.05.4-.19.37-.45.66-.95,1.12-1.32Z"/>
    <path class="cls-6" d="m16.23,20.65c.13-.07.26-.14.39-.2,0,1,0,1.99,0,2.99,0,.19.01.36.2.46-.11.21-.36.33-.41.58,0,0,0,0,0,0-.37.36-.83.64-.98,1.18h0c-.22,0-.31.22-.48.3-.11-.12-.11-.26-.1-.41.04-1.15-.06-2.29-.1-3.43.42-.56.98-.98,1.48-1.46Z"/>
    <path class="cls-4" d="m14.96,25.96c.17-.08.25-.3.48-.3-.02.29-.33.42-.38.7-.03.03-.06.07-.1.1-.07,0-.13,0-.2,0l-.02-.02c0-.19.13-.32.22-.47Z"/>
    <path class="cls-4" d="m14.46,27.04c-.26-.27-.19-.42.28-.61,0,0,.02.02.02.02,0,.06,0,.13,0,.19,0,0,0,0,0,0-.17.07-.22.24-.3.39Z"/>
    <path class="cls-8" d="m14.46,27.04c.08-.15.13-.31.3-.39-.05.16.11.5-.3.39Z"/>
    <path class="cls-8" d="m14.76,26.65c0-.06,0-.13,0-.19.07,0,.13,0,.2,0,0,.03,0,.06,0,.09-.07.04-.14.07-.21.11Z"/>
    <path class="cls-1" d="m15.24,31.47c.47,0,.94-.04,1.38-.21.1,0,.19,0,.29.01-.1.28-.19.57-.19.88-.2.07-.39.13-.59.2-.02,0-.03,0-.05,0q-.9.05-.84-.87Z"/>
    <path class="cls-1" d="m14.76,31.46s.07,0,.1,0c-.03,0-.07,0-.1,0Z"/>
    <path class="cls-12" d="m24.77,18.6s.07.06.11.09c0,1.77,0,3.54-.01,5.3-.14-.17-.09-.37-.09-.56,0-1.61,0-3.22,0-4.83Z"/>
    <path class="cls-12" d="m24.96,24.68c-.19-.21-.05-.46-.09-.69.16.21.08.46.09.69Z"/>
    <path class="cls-3" d="m21.23,18.01c.28.15.59.08.89.1.01.82-.06,1.65.1,2.46-.11.16-.23.31-.33.47-.24.43-.75.67-.86,1.18,0,0,0,0,0,0-.06.01-.12.02-.17.03.07-.47-.12-.89-.24-1.33-.04-.16-.14-.18-.25-.11-.11.06-.21.15-.31.23,0-.1,0-.2,0-.3.06-.04.12-.07.19-.11.23-.16.47-.32.7-.47.06,0,.13,0,.19,0,.03.03.07.06.1.09.09-.01.2.01.24-.1.03-.1-.06-.14-.13-.17-.1-.05-.2-.08-.31-.12,0-.55,0-1.11,0-1.66.01-.11.08-.18.19-.2Z"/>
    <path class="cls-7" d="m20.55,23.4c-.24.28-.67.38-.79.78-.13,0-.25.01-.38.02-.11-.01-.22,0-.3.09-.03,0-.06,0-.1,0-.2-.03-.42.05-.59-.11.33-.1.65-.2.98-.3.38-.02.4-.46.69-.58.03.04.07.04.1,0h0c.24-.03.29-.31.5-.39,0,0,0,0,0,0-.04.16-.07.32-.11.48Z"/>
    <path class="cls-4" d="m21.53,23.7c-.06,0-.13,0-.19.01-.16-.03-.35.03-.4-.21.29-.1.59-.2.88-.3.45.02.84.2,1.24.46-.26.19-.47.15-.7.03-.27-.14-.55-.16-.83,0Z"/>
    <path class="cls-7" d="m22.81,20.85c-.55.66-1.19,1.23-1.86,1.77,0,0,0,0,0,0,.03-.13.06-.26.09-.4,0,0,0,0,0,0,.44-.23.71-.65,1.02-1.01.22-.24.43-.38.75-.36Z"/>
    <path class="cls-4" d="m22.81,20.85c-.32-.01-.53.12-.75.36-.32.35-.58.78-1.02,1.01.12-.52.62-.76.86-1.18.09-.16.22-.31.33-.47.24,0,.5-.03.58.28Z"/>
    <path class="cls-7" d="m20.95,22.63c-.02.17-.12.27-.29.3,0,0,0,0,0,0,0-.07,0-.13,0-.2,0,0,0,0,0,0,.03-.03.07-.07.1-.1,0,0,0,0,0,0h.2s0,.01,0,.01Z"/>
    <path class="cls-8" d="m36.65,34.01s.04-.04.06-.05c0,.01.01.03.02.04-.03,0-.05.01-.08.02,0,0,0,0,0,0Z"/>
    <path class="cls-3" d="m23.31,32.14c-.1-.23-.21-.45-.31-.68.58-.72,1.14-1.46,1.75-2.16.66-.76,1.28-1.55,1.93-2.31.3-.35.81-.59.84-1.15.55-.18,1.09-.38,1.67-.36-.83.99-1.65,1.98-2.48,2.96-.92,1.09-1.86,2.18-2.78,3.27-.14.16-.23.36-.34.54-.09-.04-.19-.07-.28-.11Z"/>
    <path class="cls-1" d="m27.51,25.84c-.03.56-.54.8-.84,1.15-.65.76-1.27,1.56-1.93,2.31-.61.7-1.17,1.44-1.75,2.16-.09-.1-.18-.21-.28-.31-.45-1.79.35-3.03,1.75-4.01.92-.64,1.93-1.09,3.04-1.3Z"/>
    <path class="cls-12" d="m30.86,25.38c-.29,0-.59,0-.88-.01.53-.19,1.08-.05,1.62-.09.18-.01.35-.01.53-.02,0,.03,0,.06,0,.09-.43.01-.85.02-1.28.03Z"/>
    <path class="cls-6" d="m30.86,25.38c.43,0,.85-.02,1.28-.03.13.01.26.03.39.04-.46.61-.87,1.27-1.49,1.75-.4.06-.56.47-.37.97.01.19.27.29.16.51-.64-.21-1.29-.41-1.94-.62.24-.7.88-1.11,1.27-1.7.21-.32.55-.55.69-.92Z"/>
    <path class="cls-6" d="m18.67,19.17c.21-.33.6-.31.89-.48.13-.03.26-.06.4-.09.19.1.2.28.2.46,0,.34,0,.68,0,1.02-.02.21-.17.35-.29.5-.29.37-.68.65-.93,1.06-.02.03-.05.05-.07.08-.03.01-.06.02-.09.03,0-.56,0-1.13,0-1.69,0-.3.1-.61-.11-.89Z"/>
    <path class="cls-2" d="m20.16,20.08c0-.34,0-.68,0-1.02,0-.18-.01-.36-.2-.46.33-.2.71-.28,1.08-.39,0,.55,0,1.11,0,1.66-.32-.05-.6.09-.88.22Z"/>
    <path class="cls-3" d="m21.24,17.71c.08.07.08.13,0,.2,0-.07,0-.13,0-.2Z"/>
    <path class="cls-10" d="m18.67,19.17c.2.28.1.59.11.89.02.56,0,1.13,0,1.69-.33.42-.67.83-1,1.25-.29.11-.43.37-.6.6-.02.02-.05.05-.07.07-.09.08-.19.15-.28.23-.19-.1-.2-.27-.2-.46,0-1,0-1.99,0-2.99.4-.44.99-.62,1.38-1.06.22-.07.45-.15.67-.22Z"/>
    <path class="cls-4" d="m28.9,28c.65.21,1.29.41,1.94.62-.29.22-.56-.03-.85-.02-.04-.03-.07-.05-.11-.08-.06,0-.13,0-.19-.01-.03-.03-.07-.05-.1-.08-.07,0-.13,0-.2-.01-.46-.1-.89-.52-1.38-.11-.14-.02-.39.07-.34-.19.03-.2.19-.39.45-.32.26.06.52.14.78.21Z"/>
    <path class="cls-7" d="m30.67,28.11c-.18-.5-.03-.9.37-.97.06.16.12.32.19.49-.41-.1-.33.37-.56.48Z"/>
    <path class="cls-1" d="m29.58,28.43s.07.05.1.08c-.03-.03-.07-.05-.1-.08Z"/>
    <path class="cls-1" d="m29.88,28.52s.07.05.11.08c-.04-.03-.07-.05-.11-.08Z"/>
    <path class="cls-2" d="m20.06,23.31c-.29.12-.32.56-.69.58,0-.06,0-.13,0-.19-.05-.6-.17-.66-.67-.32-.03-.23.21-.31.25-.49.02-.1.19-.18.06-.29-.11-.08-.21.02-.3.08-.31.19-.45.61-.88.64,0-.04-.01-.07-.02-.11,0-.03.01-.06.01-.09.03-.03.05-.06.08-.09,0,0,.01-.01.01-.01.03-.03.06-.06.09-.09.31-.11.49-.36.68-.6.03-.03.06-.07.1-.1.03-.03.06-.07.09-.1.4-.36.79-.71,1.19-1.07.1-.08.2-.17.31-.23.12-.07.21-.05.25.11.12.44.3.86.24,1.33-.04.12-.08.24-.12.36,0,0,0,0,0,0-.03.03-.07.07-.1.1,0,0,0,0,0,0-.3.08-.43.31-.49.59,0,0,0,0,0,0-.03,0-.06,0-.1,0Z"/>
    <path class="cls-7" d="m17.7,26.64c-.46.37-.75.88-1.12,1.32-.12.15-.2.34-.4.19-.25-.17.02-.29.09-.43.05-.1.11-.2.17-.29.5-.4.84-.94,1.25-1.42.19-.22-.04-.5.02-.75.19-.07.17.16.29.2,0,.16.02.33.03.49,0,.03-.01.06,0,.09-.1.19-.21.39-.31.58Z"/>
    <path class="cls-2" d="m16.72,32.14c0-.31.09-.59.19-.88.39-.13.79-.26,1.18-.4.08.26-.18.52,0,.79-.43.23-.9.38-1.37.49Z"/>
    <path class="cls-8" d="m18.21,28.6c-.04.07-.08.14-.12.21-.35-.51-.21-1.05-.1-1.58.25.02.16.29.3.4,0,.16,0,.33,0,.49-.09.08-.1.19-.08.3,0,.06,0,.13,0,.19Z"/>
    <path class="cls-8" d="m17.11,23.67s.05-.05.07-.07c.14-.04.27-.07.41-.11l.02.02c-.22.45-.58.79-.89,1.17-.1.07-.19.13-.29.2,0,0-.02-.02-.02-.02,0-.13,0-.25.01-.38,0,0,0,0,0,0,.38-.14.66-.37.69-.81Z"/>
    <path class="cls-6" d="m18.29,27.63c-.14-.1-.05-.37-.3-.4.01-.21.08-.35.28-.14.15.16.16.35.02.53Z"/>
    <path class="cls-6" d="m17.99,25.47c-.12-.04-.1-.27-.29-.2-.06-.06-.11-.13-.05-.21.05-.08.14-.09.21-.03.13.11.28.23.13.44Z"/>
    <path class="cls-1" d="m18.39,24.19c.18.16.4.07.59.11-.24.19-.47.3-.7-.01.04-.03.07-.06.11-.1Z"/>
    <path class="cls-6" d="m18.21,28.42c-.02-.11-.01-.22.08-.3.13.14.1.24-.08.3Z"/>
    <path class="cls-8" d="m17.8,23.21s.01.07.02.11c-.03.1-.1.17-.21.2,0,0-.02-.02-.02-.02.03-.13.09-.23.21-.28Z"/>
    <path class="cls-6" d="m18.01,26.05s0-.06,0-.09c0,.02.01.04.01.06,0,0-.01.02-.02.03Z"/>
    <path class="cls-1" d="m19.08,24.29c.08-.1.19-.1.3-.09-.08.08-.19.09-.3.09Z"/>
    <path class="cls-1" d="m20.94,23.5c.04.24.24.19.4.21-.06.21-.24.17-.4.18-.17-.13-.33-.26,0-.4Z"/>
    <path class="cls-8" d="m15.06,26.36c.05-.27.36-.41.38-.7,0,0,0,0,0,0,.19,0,.25-.17.36-.28.19-.18.29-.49.61-.51,0,0,.02.02.02.02-.22.38-.48.73-.79,1.03-.13.12-.27.24-.3.43-.03,0-.06,0-.09.01-.06,0-.13,0-.19,0Z"/>
    <path class="cls-3" d="m15.25,26.36s.06,0,.09-.01c-.03.04-.06.05-.09.01Z"/>
    <path class="cls-4" d="m16.41,24.86c-.32.03-.42.33-.61.51-.11.11-.17.28-.36.28.16-.54.62-.82.98-1.18,0,.13,0,.25-.01.38Z"/>
    <path class="cls-4" d="m17.11,23.67c-.03.44-.31.66-.69.81.05-.26.29-.37.41-.58.09-.08.19-.15.28-.23Z"/>
    <path class="cls-4" d="m20.16,20.08c.28-.13.55-.26.88-.22.1.04.21.08.31.12.07.03.15.08.13.17-.03.12-.15.09-.24.1-.03-.03-.07-.06-.1-.09-.06,0-.13,0-.19,0-.45-.16-.61.1-.7.47-.06.04-.12.07-.19.11-.41.24-.6.76-1.11.89.25-.41.63-.7.93-1.06.12-.15.27-.29.29-.5Z"/>
    <path class="cls-8" d="m18.95,21.64c.51-.12.69-.65,1.11-.89,0,.1,0,.2,0,.3-.4.36-.79.71-1.19,1.07,0-.13,0-.27,0-.4.02-.03.05-.05.07-.08Z"/>
    <path class="cls-8" d="m20.24,20.64c.09-.38.25-.63.7-.47-.23.16-.47.32-.7.47Z"/>
    <path class="cls-4" d="m20.74,22.61c.04-.12.08-.24.12-.36.06-.01.12-.02.17-.03-.03.13-.06.26-.09.4-.07,0-.13,0-.2,0Z"/>
    <path class="cls-8" d="m21.14,20.18s.07.06.1.09c-.03-.03-.07-.06-.1-.09Z"/>
    <path class="cls-4" d="m20.15,23.3c.07-.28.19-.51.49-.59,0,.07,0,.13,0,.2-.21.07-.25.36-.5.39Z"/>
    <path class="cls-4" d="m20.06,23.31s.06-.01.1,0c-.03.04-.06.04-.1,0Z"/>
    <path class="cls-4" d="m20.64,22.72s.07-.07.1-.1c-.03.03-.07.07-.1.1Z"/>
    <path class="cls-4" d="m18.88,21.72c0,.13,0,.27,0,.4-.03.03-.06.07-.09.1-.03.03-.06.07-.1.1-.19.24-.37.5-.68.6-.03.03-.06.06-.09.09,0,0-.01.01-.01.01-.03,0-.06-.01-.1-.01l-.02-.02c.33-.42.67-.83,1-1.25.03,0,.06-.02.09-.03Z"/>
    <path class="cls-4" d="m17.8,23.21c-.12.05-.18.15-.21.28-.14.04-.27.07-.41.11.17-.23.31-.49.6-.6,0,0,.02.02.02.02,0,.03.01.07.02.1,0,.03,0,.06-.01.09Z"/>
    <path class="cls-8" d="m18.68,22.32s.06-.07.1-.1c-.03.03-.06.07-.1.1Z"/>
    <path class="cls-8" d="m17.91,23.01s.06-.06.09-.09c-.03.03-.06.06-.09.09Z"/>
    <path class="cls-8" d="m17.82,23.12s-.01-.07-.02-.1c.03,0,.06,0,.1.01-.03.03-.05.06-.08.09Z"/>
  </g>
</svg>