<?xml version="1.0" encoding="UTF-8"?>
<svg id="Calque_2" data-name="Calque 2" xmlns="http://www.w3.org/2000/svg" viewBox="0 0 44.4 44.4">
  <defs>
    <style>
      .cls-1 {
        fill: #f6f7f9;
      }

      .cls-1, .cls-2, .cls-3 {
        stroke-width: 0px;
      }

      .cls-2 {
        fill: #25866c;
      }

      .cls-3 {
        fill: #31374e;
      }
    </style>
  </defs>
  <g id="Calque_1-2" data-name="Calque 1">
    <g>
      <path class="cls-1" d="m44.4,22.2c0,12.26-9.94,22.2-22.2,22.2S0,34.46,0,22.2,9.94,0,22.2,0s22.2,9.94,22.2,22.2Z"/>
      <g>
        <path class="cls-3" d="m24.64,30.73c0,.55-.3.89-.87.9-.61,0-.89-.35-.89-.94,0-.8,0-1.61,0-2.41,0-.3,0-.63-.12-.9-.09-.21-.36-.48-.54-.47-.19,0-.51.29-.53.48-.08.72-.07,1.46-.09,2.18-.01.42,0,.85-.05,1.27-.06.52-.37.8-.9.79-.53-.01-.84-.31-.86-.83-.03-.61,0-1.23,0-1.84h.02c0-.59-.03-1.18,0-1.77.08-1.25,1.03-2.11,2.28-2.13,1.46-.02,2.46.74,2.54,2.07.08,1.2.04,2.4.03,3.61h0Z"/>
        <path class="cls-2" d="m35.19,33.13c-.58.29-1.39.38-2.03.25-1.97-.41-3.91-.96-5.86-1.46-.86-.22-1.29-.79-1.3-1.69,0-.4.01-.8,0-1.2-.03-.56.15-.81.75-.6.35.12.73.26,1.09.26.33,0,.77-.08.96-.3.15-.18.09-.69-.06-.93-1.92-2.96-3.87-5.89-5.83-8.82-.41-.62-.99-.6-1.41.02-1.95,2.91-3.89,5.83-5.8,8.76-.17.25-.2.73-.07,1.01.18.4.62.46,1.04.26.1-.05.23-.04.34-.07,1.6-.47,1.39-.32,1.39,1.09,0,1.64-.27,1.97-1.87,2.37-1.75.44-3.49.89-5.24,1.33-1.51.38-2.74-.27-3.18-1.68-.26-.84.01-1.56.47-2.25,2.63-3.96,5.25-7.91,7.88-11.87,1.16-1.74,2.31-3.49,3.48-5.23,1.3-1.93,3.21-1.96,4.49-.04,3.82,5.73,7.62,11.47,11.42,17.22.89,1.35.65,2.92-.66,3.59h0Z"/>
      </g>
    </g>
  </g>
</svg>