<?xml version="1.0" encoding="UTF-8"?>
<svg id="Calque_1" data-name="Calque 1" xmlns="http://www.w3.org/2000/svg" viewBox="0 0 54 54">
  <defs>
    <style>
      .cls-1 {
        fill: #0070b1;
      }

      .cls-2, .cls-3 {
        fill: #fff;
      }

      .cls-3 {
        fill-rule: evenodd;
      }
    </style>
  </defs>
  <path class="cls-3" d="m27,48.54c11.9,0,21.54-9.64,21.54-21.54S38.9,5.46,27,5.46,5.46,15.1,5.46,27s9.64,21.54,21.54,21.54Z"/>
  <path class="cls-1" d="m49.2,27c0,12.26-9.94,22.2-22.2,22.2S4.8,39.26,4.8,27,14.74,4.8,27,4.8s22.2,9.94,22.2,22.2Z"/>
  <path class="cls-2" d="m20.86,33.43c-.24,0-.47-.04-.7-.1-.01,0-.02,0-.03,0-.04,0-.08,0-.11-.02-.01,0-.03-.01-.05-.02-.04,0-.07,0-.11-.02-.02,0-.03-.01-.05-.02-.08,0-.15-.03-.22-.06-.02,0-.04-.02-.07-.02-.1-.01-.19-.05-.27-.09-.02,0-.04-.02-.06-.03-.17-.04-.32-.11-.47-.19-1.33-.64-2.34-1.61-3.02-2.92-.18-.35-.33-.72-.44-1.1,0-.03,0-.06-.01-.09,0-.02,0-.05-.03-.05-.03,0-.03.02-.04.04-.05.14-.14.27-.22.4-.69,1.2-1.38,2.4-2.08,3.6-.05.09-.1.19-.16.28-.12.18-.27.33-.49.39-.01,0-.03.01-.04.02-.02.02-.05.02-.08.02-.02,0-.04,0-.07.01-.09.03-.19.03-.28,0-.02,0-.04,0-.06-.01-.03,0-.06,0-.08-.02-.01,0-.03-.01-.04-.02-.34-.11-.52-.36-.6-.69-.06-.24,0-.48.12-.69.2-.35.4-.7.6-1.05.69-1.2,1.39-2.4,2.08-3.6.67-1.17,1.35-2.33,2.02-3.5.47-.81,1.07-1.51,1.82-2.07.08-.06.16-.13.25-.16.01,0,.02-.02.03-.02.11-.08.22-.16.34-.21.01,0,.03-.02.04-.03.2-.13.41-.24.64-.32.01,0,.03-.01.04-.02.01,0,.03,0,.04-.01.01,0,.02,0,.03-.01.02,0,.04-.01.05-.02.02,0,.04-.02.06-.03.01,0,.03,0,.04-.01.01,0,.02,0,.03-.01.02-.02.05-.03.08-.03.01,0,.02-.01.04-.02.02-.02.05-.02.08-.02.01,0,.03-.01.04-.02.02,0,.05-.01.07-.02.01,0,.03-.01.04-.02.02-.02.05-.02.08-.02.02,0,.05-.02.07-.03.02,0,.05,0,.07-.01.01,0,.03,0,.04-.01.03-.02.06-.02.09-.02.02,0,.04-.01.06-.02.04-.02.08-.03.12-.02.02,0,.05-.01.07-.02.04-.02.08-.02.12-.02.02,0,.05-.01.07-.02.15-.03.3-.07.46-.06.05,0,.1,0,.15-.02.33-.03.66-.03.99,0,.08.02.17.05.26.03.04,0,.08,0,.12.01.07.03.14.06.21.04.13,0,.26.03.39.07.02,0,.05.02.07.02.03,0,.05,0,.08.01.02,0,.05.02.07.02.03,0,.05.01.08.02.02,0,.04.02.06.02.03,0,.07,0,.09.03,0,0,.02,0,.03,0,.03,0,.06,0,.09.03,0,0,.02,0,.03.01.03,0,.06,0,.09.03,0,0,.02,0,.03,0,.01,0,.03,0,.04.01.02,0,.04.02.07.03.05,0,.09.02.12.05.02,0,.04.02.06.03.02,0,.04.01.05.02,0,0,.02.01.03.01.07.01.14.04.19.09.01,0,.03.02.04.02.08.01.14.05.21.09.98.52,1.79,1.24,2.4,2.17.04.06.06.12.13.16.06-.05.08-.11.12-.17.63-.94,1.44-1.67,2.44-2.18.05-.03.1-.06.16-.07,0,0,.01,0,.02,0,.04-.04.09-.07.15-.07.01,0,.03-.02.04-.02.04-.02.07-.05.12-.05,0,0,.02,0,.02,0,.05-.04.1-.06.16-.07,0,0,.02,0,.02,0,.02-.02.05-.03.08-.03.01,0,.02,0,.03-.01.02-.02.05-.03.08-.02.01,0,.02-.01.04-.02.02-.02.05-.02.08-.02.01,0,.02,0,.03-.01.03-.02.05-.03.09-.02.02,0,.05-.02.07-.02.03,0,.05-.01.08-.02.01,0,.02,0,.03-.01.03-.03.07-.03.12-.03.01,0,.02,0,.04-.01.04-.03.08-.03.12-.03.02,0,.05-.01.07-.02.08-.02.15-.05.24-.04.08.02.15-.01.22-.04.03,0,.06,0,.08,0,.1.02.2,0,.3-.03.32-.03.64-.03.95,0,.1.02.19.05.3.03.03,0,.06,0,.08,0,.07.03.14.06.22.04.08-.01.16.02.24.04.02,0,.05.01.07.02.04,0,.09,0,.12.03.02,0,.04,0,.06.01.03,0,.06,0,.09.02.05.05.11.05.18.05.03,0,.06,0,.09.02,0,0,.02,0,.03.01.03,0,.06,0,.08.02,0,0,.02.01.03.01.03,0,.06,0,.08.03,0,0,.02,0,.03.01.03,0,.06,0,.09.03,0,0,.01,0,.02,0,.02,0,.03,0,.05.01.01,0,.03.01.04.02.03,0,.06,0,.08.03,0,0,.02,0,.02,0,.11.03.22.08.32.14,0,0,.01,0,.02,0,.24.1.46.22.66.37,0,0,.02,0,.02,0,.24.12.44.29.64.46,1,.84,1.69,1.87,2.07,3.12.01.04.01.09.05.12.06,0,.07-.05.09-.09.39-.68.79-1.36,1.18-2.04.4-.7.81-1.4,1.21-2.09.1-.17.24-.31.42-.4.02-.01.05-.01.07-.02.01,0,.02,0,.03-.01.02-.02.05-.03.08-.02.02,0,.05-.01.07-.02.1-.03.21-.03.31,0,.03,0,.05.01.08.02.02,0,.05.01.07.02.02,0,.04.02.06.03.34.13.52.39.58.73.04.22,0,.44-.12.64-.22.38-.44.76-.66,1.15-.64,1.11-1.28,2.22-1.92,3.32-.72,1.24-1.44,2.49-2.15,3.73-.45.77-1.02,1.44-1.73,1.98-.05.04-.1.07-.16.1-.01,0-.02.01-.03.02-.04.04-.08.08-.14.09,0,0,0,0,0,0-.21.14-.42.27-.65.38,0,0,0,0,0,0-.13.08-.26.15-.4.19,0,0-.02,0-.03.01-.02,0-.04.02-.06.02-.02,0-.04.02-.06.03-.01,0-.03,0-.04.01-.01,0-.02,0-.03.01-.05.03-.11.06-.17.06,0,0,0,0,0,0-.11.06-.23.1-.35.11-.01,0-.02,0-.03.01-.03.03-.07.03-.11.03-.01,0-.03.01-.04.02-.03.02-.07.02-.11.02-.01,0-.03,0-.04.01-.04.02-.09.03-.14.02-.02,0-.03.01-.05.02-.25.06-.51.09-.77.11-.01,0-.02,0-.04-.01-.02,0-.04,0-.06.01-.27.03-.54.03-.8,0-.02,0-.04,0-.06-.01-.07.02-.15,0-.22,0-.2-.02-.4-.04-.59-.09-.02,0-.03-.01-.05-.02-.05,0-.1,0-.14-.03-.01,0-.03,0-.04-.01-.04,0-.08,0-.11-.02-.01,0-.03-.01-.04-.02-.04,0-.08,0-.11-.03-.01,0-.02,0-.03-.01-.03,0-.05-.01-.08-.02-.01,0-.03-.01-.04-.02-.15-.03-.28-.08-.41-.14,0,0-.02-.01-.03-.01-.04,0-.07-.01-.1-.04,0,0,0,0,0,0-.15-.04-.28-.11-.42-.18,0,0,0,0,0,0-.04-.02-.08-.03-.12-.05-1.02-.54-1.84-1.29-2.46-2.26-.02-.03-.03-.05-.05-.08-.01,0-.02,0-.04,0-.61.99-1.44,1.76-2.46,2.32-.22.12-.44.24-.69.31,0,0-.02,0-.02,0-.02.02-.05.03-.08.03-.01,0-.02.01-.04.02-.14.06-.27.11-.42.13,0,0-.02,0-.03,0-.03.03-.07.03-.12.03-.01,0-.02,0-.04.01-.03.02-.07.03-.11.03-.01,0-.02,0-.04.01-.04.03-.08.03-.12.03-.02,0-.05.01-.07.02-.26.06-.51.11-.78.1-.05,0-.09,0-.13.02-.26.02-.51.03-.77,0-.07-.03-.14-.02-.22-.02Zm7.1-6.01s-.03.08,0,.11c.04.08.03.17.05.26.3,1.52,1.14,2.63,2.52,3.34.04.02.09.05.13.07h.01c.09.02.17.06.24.1,0,0,.02.01.03.01.01,0,.03,0,.04.01.02,0,.05.02.07.03.01,0,.03,0,.04.01.02,0,.05.02.07.03.03,0,.06,0,.08.02.01,0,.02,0,.04.01.04,0,.08,0,.12.03.01,0,.02,0,.03,0,.04,0,.09,0,.13.02.48.1.96.13,1.45.07.13-.02.26-.03.39-.05.02,0,.04-.01.06-.02.04-.02.08-.03.12-.02.02,0,.05-.02.07-.02.03,0,.05,0,.08-.01.01,0,.02,0,.03-.01.03-.02.06-.03.09-.02.02,0,.05-.02.07-.03h.05s.04-.03.07-.04h.04s.05-.03.07-.04c.04-.02.08-.05.12-.05,0,0,.01,0,.02,0,.03-.02.06-.04.1-.05.58-.26,1.07-.63,1.5-1.09.16-.18.32-.36.44-.57.11-.18.21-.37.31-.56.03-.05.05-.1.07-.15.39-.92.49-1.86.25-2.83-.36-1.46-1.23-2.51-2.59-3.16-.06-.03-.11-.06-.17-.08h-.02c-.06-.01-.12-.04-.17-.07,0,0-.02,0-.03-.01-.03,0-.06,0-.08-.03,0,0-.02,0-.03-.01-.03,0-.05-.01-.08-.02-.02,0-.04-.01-.06-.02-.03,0-.06,0-.09-.02-.01,0-.02,0-.03-.01-.04,0-.08,0-.12-.02-.02,0-.04-.01-.06-.02-.04,0-.08,0-.12-.02-.03,0-.07-.01-.1-.02-.06,0-.11,0-.17-.02-.05-.01-.1-.02-.15-.03-.04-.01-.07,0-.11.01-.24,0-.48,0-.72,0-.04,0-.07.01-.11.02-.13.03-.26.06-.39.06l-.07.02s-.07.03-.11.02c-.01,0-.02,0-.04.01-.03.02-.06.02-.09.02l-.07.02s-.05.01-.07.02c-.01,0-.03.01-.04.02-.09.04-.18.07-.27.09,0,0-.02,0-.03.01-.26.12-.52.26-.78.4,0,0-.01,0-.02.01-.06.05-.13.1-.19.15-.95.71-1.55,1.64-1.79,2.8,0,.04-.02.07-.03.11-.03.03-.03.07-.01.11-.01.18-.03.36-.04.54,0,.19,0,.38,0,.56Zm-5.59,4.08l.07-.02c.06-.02.12-.04.18-.05,1.75-.44,3.22-1.98,3.41-4,.1-1.07-.14-2.06-.74-2.97-.87-1.31-2.41-2.18-4.22-2.04-.1,0-.2.04-.3.03-.03,0-.06.01-.1.02-.03,0-.06.02-.09.02-.98.2-1.81.67-2.49,1.4-.17.18-.33.38-.46.6-.09.16-.18.32-.27.48-.03.06-.07.12-.1.18-.37.88-.49,1.78-.3,2.72.31,1.49,1.16,2.58,2.52,3.25.78.38,1.6.51,2.46.42.14-.02.27-.03.41-.05Z"/>
</svg>