<?xml version="1.0" encoding="UTF-8"?>
<svg id="Calque_1" data-name="Calque 1" xmlns="http://www.w3.org/2000/svg" viewBox="0 0 54 54">
  <defs>
    <style>
      .cls-1 {
        fill: #02b2e5;
      }

      .cls-2, .cls-3 {
        fill: #fff;
      }

      .cls-4 {
        fill: #ececec;
      }

      .cls-5 {
        fill: #e5e5e5;
      }

      .cls-6 {
        fill: #17458e;
      }

      .cls-7 {
        fill: #7a92bc;
      }

      .cls-3 {
        fill-rule: evenodd;
      }
    </style>
  </defs>
  <path class="cls-3" d="m27,48.54c11.9,0,21.54-9.64,21.54-21.54S38.9,5.46,27,5.46,5.46,15.1,5.46,27s9.64,21.54,21.54,21.54Z"/>
  <path class="cls-4" d="m49.2,27c0,12.26-9.94,22.2-22.2,22.2S4.8,39.26,4.8,27,14.74,4.8,27,4.8s22.2,9.94,22.2,22.2Z"/>
  <g id="OnjKwm.tif">
    <g>
      <path class="cls-6" d="m17.43,39.91c-.57-.15-1.09-.4-1.57-.73-.02-.06-.06-.08-.12-.08-.5-.34-.95-.75-1.27-1.24-.34-.53-.62-1.11-.81-1.73-.11-.35-.2-.7-.29-1.05-.06-.22-.05-.46,0-.69-.01-.28-.03-.56-.04-.83.1-.27.04-.56.06-.84,0-.11.02-.22.03-.33.14-.19.09-.41.08-.61.21-.74.32-1.5.62-2.22.21-.49.37-1.01.56-1.51.14-.34.32-.66.48-.99.24-.17.32-.44.4-.71.11-.35.34-.63.53-.93.22-.36.41-.74.68-1.07.23-.28.41-.59.62-.88.31-.17.49-.45.62-.77.07-.1.14-.19.22-.29.02-.02.04-.04.05-.06.02,0,.03,0,.04-.02.11,0,.13-.07.11-.16.09-.09.19-.19.28-.28.03-.01.08-.01.1-.04.74-.87,1.56-1.66,2.4-2.43.09-.08.21-.16.22-.3.16-.17.38-.29.52-.48.42-.17.74-.46,1.03-.8.62-.5,1.28-.94,1.95-1.37.46-.29.96-.54,1.43-.81.55-.32,1.13-.58,1.73-.81.43-.16.86-.31,1.29-.47.18-.07.37-.07.55-.13.63-.22,1.29-.32,1.93-.49.07-.02.15,0,.22,0,.85,0,1.7,0,2.55,0,.02.02.03.04.05.05.03.05.07.08.13.09.85.16,1.65.44,2.33,1,.7.58,1.36,1.18,1.69,2.06.13.34.3.67.4,1.02.16.59.21,1.19.18,1.8-.02.37.08.73.02,1.1-.08.49-.04.99-.23,1.48-.09.24-.14.54-.17.82-.06.59-.36,1.1-.57,1.65-.05.14-.07.29-.13.42-.18.39-.37.77-.55,1.16-.17.36-.28.74-.5,1.06-.4.58-.7,1.21-1.11,1.78-.52.7-.99,1.44-1.52,2.13-.32.41-.66.81-1.06,1.16-.56.49-.96,1.14-1.52,1.64-.43.39-.93.7-1.32,1.14-.06.07-.12.14-.2.19-.71.51-1.42,1.02-2.13,1.52-.49.35-1.03.62-1.55.93-.7.42-1.44.75-2.17,1.1-.46.22-.94.35-1.42.49-.47.14-.96.22-1.43.37-.18.06-.4,0-.59.1-.24.05-.5.02-.73.11-.73.04-1.45,0-2.18-.05-.11,0-.21-.05-.32-.08-.21-.01-.39-.2-.62-.13Zm17.14-17.71c.02-.05.02-.09-.04-.12-.06-.24-.05-.52-.39-.56-.04-.1-.13-.11-.22-.11-.03-.07-.08-.1-.15-.1-.34,0-.68-.04-1.01.05-.08.02-.19-.02-.22.11-.42.11-.82.28-1.23.44-.12.09-.3.07-.39.21-.38.17-.77.34-1.13.56-.84.52-1.68,1.03-2.52,1.54,0-.07,0-.15-.06-.21,1.22-.82,2.42-1.67,3.7-2.4.07,0,.12-.03.12-.11.19-.09.38-.18.57-.27.09,0,.18-.02.21-.12.2-.07.4-.13.61-.2.29.02.56-.12.85-.14.17-.01.18-.08.05-.25,0-.09-.05-.09-.11-.08-.03-.09-.1-.08-.17-.07-.29-.12-.58-.06-.88,0-.09-.02-.19-.05-.25.06-.27.06-.52.16-.75.31-.13-.01-.25,0-.29.15-.13.02-.23.1-.33.17-.46.33-.93.66-1.39.99-.34.1-.55.37-.78.61-.41.33-.81.67-1.22,1-.05-.04-.11-.07-.16-.11.08-.07.15-.15.23-.22.13.02.19-.05.22-.17.28-.33.64-.58.94-.89.35-.15.62-.4.83-.72.09-.07.19-.13.28-.2.48-.39.96-.77,1.49-1.08.05,0,.1,0,.12-.06.22-.12.45-.23.7-.3.06.03.1.02.13-.04.03,0,.06,0,.09-.01.1.03.2.04.22-.1,0-.03,0-.06,0-.08-.03-.23-.14-.35-.39-.32-.15,0-.31,0-.46,0-.1-.04-.19-.02-.24.08-.28.09-.57.17-.82.35-.07-.02-.12,0-.14.08-.32.19-.62.42-.89.67-.17.15-.32.28-.53.1-.03-.08-.08-.09-.14-.05-.12,0-.24-.02-.37-.02-.05,0-.09-.02-.14-.02-1.78,0-3.57,0-5.35,0-.12,0-.23.05-.34.08-.03,0-.06,0-.09.01-.23.13-.52.18-.62.47-.07.17-.2.31-.22.5-.15.23-.08.48-.08.72,0,3.68,0,7.37,0,11.05,0,.14,0,.28.01.41-.02.46.13.85.53,1.11.08.07.14.17.26.17.12.2.31.23.52.23,1.69,0,3.39,0,5.08,0,.08,0,.17.03.22-.06.56.04.97-.21,1.27-.67.13.02.11-.08.12-.15.11-.15.15-.32.17-.5.17-.06.11-.2.11-.31,0-1.15,0-2.3,0-3.45,0-.17.03-.32.12-.46,1.05-.61,2.07-1.26,3.16-1.81.39-.19.78-.39,1.21-.48.08,0,.17,0,.25-.02.53-.14,1.06-.26,1.59-.02.16.07.22-.02.23-.17.12-.19.03-.37-.03-.55-.16-.45-.32-.89-.48-1.34-.27-.74-.56-1.47-.78-2.22-.04-.09-.08-.18-.12-.27.01-.05.1-.12-.04-.12-.02-.02-.03-.04-.05-.05,0-.03,0-.06,0-.1.05-.07.03-.12-.05-.14,0-.02,0-.03-.01-.05,0-.09.04-.2-.1-.23h-.01s0,.01,0,.01Z"/>
      <path class="cls-1" d="m21.27,40.05c.18-.11.4-.04.59-.1.47-.15.96-.23,1.43-.37.48-.14.96-.28,1.42-.49.73-.35,1.47-.68,2.17-1.1.52-.31,1.06-.58,1.55-.93.72-.5,1.42-1.01,2.13-1.52.07-.05.14-.12.2-.19.39-.44.89-.75,1.32-1.14.56-.5.96-1.15,1.52-1.64.4-.35.74-.75,1.06-1.16.53-.69,1.01-1.43,1.52-2.13.41-.57.72-1.2,1.11-1.78.22-.32.34-.71.5-1.06.18-.39.37-.77.55-1.16.06-.13.08-.28.13-.42.21-.54.5-1.06.57-1.65.03-.28.07-.58.17-.82.19-.49.15-.99.23-1.48.06-.37-.04-.73-.02-1.1.03-.61-.02-1.22-.18-1.8-.1-.35-.27-.68-.4-1.02-.34-.88-.99-1.48-1.69-2.06-.68-.56-1.48-.84-2.33-1-.06-.01-.1-.04-.13-.09.06,0,.13,0,.18-.05.06,0,.11,0,.17,0,.12.13.25.12.38.01.08.01.16.03.24.04.03.13.17.13.25.13.39-.02.73.17,1.09.25.11.02.2.15.33.06.05.1.15.1.23.13.99.38,1.72,1.05,2.25,1.95.18.3.35.59.46.92.01.16.04.32.18.43,0,.04.02.08.03.12-.08.15-.04.27.1.36.04.27.09.54.13.81,0,.11-.05.23.04.33.06.5.07,1,0,1.5-.16.04-.07.17-.08.26,0,.12.01.24.02.36-.11.12-.19.25-.08.42,0,.1-.02.2-.03.3-.16.09-.14.23-.13.38-.13.78-.37,1.54-.64,2.28-.2.53-.41,1.06-.66,1.56-.18.13-.24.32-.26.53-.17.45-.46.83-.69,1.24-.14.08-.21.2-.21.36,0,0-.01.02-.02.02-.12.03-.16.1-.13.21-.4.63-.82,1.23-1.25,1.83-.03.04-.04.08-.06.12-.22.03-.27.22-.34.38-.35.41-.69.82-1.04,1.23-.07.05-.14.09-.15.19-.71.8-1.49,1.53-2.28,2.25-.35.32-.76.58-1.11.9-.25.14-.5.26-.65.52-.48.4-1.02.72-1.53,1.06-1.1.72-2.27,1.31-3.49,1.81-.52.21-1.03.43-1.56.57-.58.16-1.16.35-1.77.4-.11,0-.22-.04-.32.05-.3.08-.62.08-.93.07-.02-.03-.04-.05-.06-.08Z"/>
      <path class="cls-7" d="m21.42,19.13c-.01.15-.13.22-.22.3-.84.77-1.66,1.57-2.4,2.43-.02.02-.06.02-.1.04,0-.1.02-.18.1-.25.73-.71,1.38-1.5,2.15-2.16.15-.13.27-.3.48-.36Z"/>
      <path class="cls-7" d="m37.31,14.26c-.13.09-.22-.03-.33-.06-.36-.08-.7-.26-1.09-.25-.08,0-.21,0-.25-.13.6-.04,1.14.18,1.67.43Z"/>
      <path class="cls-7" d="m22.97,17.86c-.29.34-.61.63-1.03.8.28-.35.64-.6,1.03-.8Z"/>
      <path class="cls-7" d="m18,22.71c-.12.32-.31.6-.62.77.15-.3.34-.57.62-.77Z"/>
      <path class="cls-7" d="m21.27,40.05s.04.05.06.08c-.26.19-.52.11-.79.04.23-.1.49-.06.73-.11Z"/>
      <path class="cls-7" d="m15.55,26.36c-.08.27-.15.54-.4.71.08-.27.16-.53.4-.71Z"/>
      <path class="cls-7" d="m13.33,33.56c.01.28.03.56.04.83-.06,0-.12-.04-.12-.09,0-.25-.13-.51.08-.74Z"/>
      <path class="cls-7" d="m30.93,36.17c.15-.26.4-.39.65-.52-.14.28-.41.37-.65.52Z"/>
      <path class="cls-7" d="m38.86,26.9c.01-.21.08-.4.26-.53,0,.22-.09.4-.26.53Z"/>
      <path class="cls-7" d="m13.49,31.79c0,.21.06.43-.08.61-.14-.23-.05-.42.08-.61Z"/>
      <path class="cls-7" d="m17.43,39.91c.23-.07.41.11.62.13-.25.17-.42-.04-.62-.13Z"/>
      <path class="cls-7" d="m36.15,31.07c.07-.16.12-.35.34-.38-.12.13-.15.33-.34.38Z"/>
      <path class="cls-7" d="m40.58,21.85c-.11-.17-.03-.29.08-.42.04.15.01.29-.08.42Z"/>
      <path class="cls-7" d="m40.43,17.7c-.15-.11-.17-.27-.18-.43.15.11.16.27.18.43Z"/>
      <path class="cls-7" d="m40.43,22.52c-.01-.15-.03-.29.13-.38,0,.14.04.3-.13.38Z"/>
      <path class="cls-7" d="m40.55,18.18c-.14-.09-.18-.21-.1-.36.09.1.13.22.1.36Z"/>
      <path class="cls-7" d="m37.96,28.5c0-.16.07-.28.21-.36-.02.15-.07.28-.21.36Z"/>
      <path class="cls-7" d="m35.4,13.79c-.13.11-.26.12-.38-.01.13-.01.25-.04.38.01Z"/>
      <path class="cls-7" d="m40.73,19.31c-.09-.1-.05-.21-.04-.33.17.09.08.21.04.33Z"/>
      <path class="cls-7" d="m22.26,40.05c.09-.09.21-.05.32-.05-.08.19-.21.06-.32.05Z"/>
      <path class="cls-7" d="m40.64,21.07c0-.09-.08-.22.08-.26,0,.1.07.21-.08.26Z"/>
      <path class="cls-7" d="m37.81,28.73c-.02-.11.02-.19.13-.21,0,.1-.02.19-.13.21Z"/>
      <path class="cls-7" d="m34.97,32.49c.01-.09.08-.14.15-.19.01.11-.01.19-.15.19Z"/>
      <path class="cls-7" d="m18.42,22.19c.02.09,0,.16-.11.16-.01-.09.04-.13.11-.16Z"/>
      <path class="cls-7" d="m34.86,13.77c-.05.06-.12.04-.18.05-.02-.02-.03-.04-.05-.05.07,0,.15,0,.22,0Z"/>
      <path class="cls-7" d="m15.74,39.11c.06,0,.1.02.12.08-.09.05-.12.01-.12-.08Z"/>
      <path class="cls-7" d="m18.27,22.36s-.04.04-.05.06c0-.04.01-.06.05-.06Z"/>
      <path class="cls-2" d="m29.59,33.96c-.02.18-.06.35-.17.5-.1,0-.12.07-.12.15-.3.46-.71.71-1.27.67-.09-.08-.19-.04-.29-.04-1.47,0-2.93,0-4.4,0-.37,0-.74,0-1.08-.17-.06-.15-.18-.22-.32-.28-.09-.05-.14-.12-.18-.22,0-.08,0-.15-.1-.17-.06-.04-.05-.11-.06-.16.08-.08.02-.1-.05-.11-.05-.08-.07-.18-.06-.28.09-.1.05-.21.05-.32,0-3.87,0-7.74,0-11.6,0-.1.04-.21-.05-.29.02-.19.15-.33.22-.5.27-.05.44-.25.65-.4,0,0-.01-.05-.02-.07.03,0,.06,0,.09-.01.05.14.17.12.26.09.18-.05.37-.04.55-.04,1.57,0,3.14,0,4.72,0,.11,0,.25.07.31-.1.12,0,.24.02.37.02.03.06.08.08.14.05.22.18.37.06.53-.1.27-.25.57-.48.89-.67.07.01.11-.01.14-.08.24-.18.53-.26.82-.35.07,0,.15,0,.22,0,.17.08.33.09.5,0,.14.02.24.08.28.23-.05.02-.06.07-.06.11-.03.03-.05.06-.08.09h-.09c-.07-.05-.1,0-.13.05-.25.07-.48.18-.7.3-.07-.04-.1,0-.12.06-.53.31-1.01.69-1.49,1.08-.09.07-.19.14-.28.2-.33.18-.6.42-.83.72-.31.3-.66.56-.94.89-.13-.01-.17.08-.22.17-.08.07-.15.15-.23.22-.06,0-.11.01-.15.06-.36.42-.83.7-1.24,1.05-.18.12-.37.24-.55.36-.05.03-.12.08-.08.15.03.05.1.04.15.02.21-.05.38-.15.63-.16.32,0,.71-.2.91-.55.25.01.41-.18.61-.28.84-.51,1.68-1.03,2.52-1.54.36-.22.75-.39,1.13-.56.15-.04.33-.01.39-.21.4-.16.81-.33,1.23-.44.1,0,.2,0,.3,0,.29-.02.57-.11.86-.04.12.18.3.06.45.1.34.04.33.32.39.56-.03.05-.07.11.04.12h0s.01-.01.01-.01c0,.04,0,.08-.01.13.02.15,0,.31.17.38.02.02.03.04.05.05,0,.04-.01.07-.02.11-.05.17,0,.27.18.28.22.76.52,1.48.78,2.22.16.45.32.89.48,1.34.06.18.15.36.03.55-.22.12-.41-.04-.62-.06-.15-.16-.46-.16-.61,0-.29.05-.6.04-.84.27-.43.1-.82.29-1.21.48-1.09.55-2.11,1.2-3.16,1.81-.24,0-.22.17-.22.33,0,1.29,0,2.59,0,3.88Zm1.83-9.55s-.08-.04-.12-.05c-.1-.09-.2-.17-.3-.26,0-.05-.04-.07-.08-.09-.09-.2-.28-.18-.45-.2-.24-.01-.48-.03-.72,0-.07-.09-.1-.04-.12.04-.21.11-.41.22-.62.33-.07,0-.11.02-.12.09-.19.13-.34.29-.48.47-.15.04-.2.15-.22.28-.05.11-.1.22-.16.33-.19.16-.23.37-.22.61l-.02.11c-.16.14-.24.84-.1.98.02.02.07.01.11.02.09.58.36,1.04.83,1.4.06.29.28.27.5.27.23.05.47.16.68-.04.05,0,.1,0,.16,0,.11.05.23.11.27-.08l.45-.33c.31-.06.46-.28.55-.55.28-.36.51-.75.55-1.22.18-.23.18-.93,0-1.22,0-.18-.12-.33-.15-.5.02-.18-.04-.32-.21-.4Zm-3.48,6.66c-.06.02-.09.06-.03.11l-.03.11c-.14.03-.25.1-.35.19-1.27,0-2.54,0-3.8,0-.14,0-.28.02-.41-.02-.24-.2-.22-.47-.22-.75,0-2.6,0-5.2,0-7.81,0-.1.08-.25-.09-.31-.03-.06-.01-.12.03-.17.11,0,.17-.06.16-.18,0-.01,0-.03,0-.04.04,0,.08,0,.11.01.04.04.1.05.15.05,1.39,0,2.77,0,4.16,0,.08,0,.17.01.18-.11.03-.05.06-.09.1-.14.26-.06.39-.27.5-.48.02-.03.04-.06.06-.1-.03-.18-.14-.19-.28-.14-1.73,0-3.46,0-5.19,0-.25-.15-.47-.07-.56.19-.18.09-.23.27-.29.44-.17.12-.05.31-.09.46-.07.06-.05.13-.05.21,0,3.68,0,7.37,0,11.05,0,.09-.03.19.09.23.06.1.11.22.19.3.16.17.33.36.61.27.04,0,.07,0,.11,0,.06.06.14.04.21.04,1.62,0,3.25,0,4.87,0,.07,0,.15.03.19-.06.33-.14.56-.37.66-.72.17-.03.11-.17.11-.27,0-.97,0-1.94,0-2.91,0-.06,0-.13-.01-.19-.01-.07-.07-.11-.14-.11-.08,0-.12.03-.12.11-.05.08-.21.03-.22.17-.04.06-.09.11-.18.1-.2-.11-.28.06-.39.16-.01.11-.02.22-.03.34Z"/>
      <path class="cls-2" d="m29.14,22.08c.46-.33.93-.66,1.39-.99.1-.07.2-.16.33-.17.12,0,.23-.04.29-.15.23-.16.48-.25.75-.31.09.02.19.04.25-.06.29-.05.59-.11.88.01.02.1.05.18.17.07.06,0,.12,0,.11.08-.16.22-.41.14-.62.2-.12.03-.26.02-.28.19-.2.07-.4.13-.61.2-.11-.04-.19,0-.21.12-.19.09-.38.18-.57.27-.08,0-.1.04-.12.11-1.28.73-2.49,1.57-3.7,2.4-.17.05-.31.18-.46.27-.08,0-.18.04-.2-.09.2-.17.43-.31.6-.52.41-.33.81-.67,1.22-1,.35-.09.57-.34.78-.61Z"/>
      <path class="cls-5" d="m21.49,21.64c.09.08.05.19.05.29,0,3.87,0,7.74,0,11.6,0,.11.04.22-.05.32-.03,0-.05-.01-.08-.02,0-.14-.01-.28-.01-.41,0-3.68,0-7.37,0-11.05,0-.24-.06-.49.08-.72Z"/>
      <path class="cls-7" d="m22.26,35.07c.34.17.71.17,1.08.17,1.47,0,2.93,0,4.4,0,.1,0,.2-.03.29.04-.05.09-.14.06-.22.06-1.69,0-3.39,0-5.08,0-.21,0-.4-.03-.52-.23.02-.01.04-.03.05-.04Z"/>
      <path class="cls-5" d="m28.26,20.59c-.06.17-.2.1-.31.1-1.57,0-3.14,0-4.72,0-.18,0-.37,0-.55.04-.09.03-.21.05-.26-.09.11-.03.22-.08.34-.08,1.78,0,3.57,0,5.35,0,.05,0,.09.01.14.02Z"/>
      <path class="cls-7" d="m29.59,33.96c0-1.29,0-2.59,0-3.88,0-.16-.01-.33.22-.33-.09.14-.12.29-.12.46,0,1.15,0,2.3,0,3.45,0,.11.06.25-.11.31Z"/>
      <path class="cls-7" d="m27.14,23.69c-.17.21-.4.34-.6.52-.25.17-.49.34-.74.52-.08.06-.17.15-.22-.03.41-.35.89-.64,1.24-1.05.04-.04.09-.07.15-.06.05.04.11.07.16.11Z"/>
      <path class="cls-7" d="m34.18,27.46c.24-.23.55-.22.84-.27.2,0,.41,0,.61,0,.21.02.4.18.62.06-.01.15-.07.24-.23.17-.53-.24-1.06-.12-1.59.02-.08.02-.16.01-.25.02Z"/>
      <path class="cls-7" d="m33.69,21.43c-.29-.07-.57.02-.86.04-.1,0-.2,0-.3,0,.03-.13.14-.09.22-.11.33-.09.67-.05,1.01-.05.07,0,.12.03.15.1-.08,0-.15.01-.23.02Z"/>
      <path class="cls-5" d="m32.41,20.94c.02-.17.16-.16.28-.19.21-.06.46.02.62-.2.13.17.12.24-.05.25-.29.02-.56.16-.85.14Z"/>
      <path class="cls-7" d="m26.75,24.3c.15-.09.29-.22.46-.27.05.06.05.14.06.21-.2.11-.36.29-.61.28-.03-.1.08-.14.09-.22Z"/>
      <path class="cls-7" d="m21.42,33.82s.05.01.08.02c0,.1,0,.19.06.28-.01.05,0,.09.05.11,0,.06,0,.12.06.16-.01.08.03.14.1.17.03.09.09.17.18.22,0,.05,0,.1,0,.15-.4-.27-.55-.65-.53-1.11Z"/>
      <path class="cls-7" d="m28.37,22.31c.23-.3.5-.54.83-.72-.21.32-.48.57-.83.72Z"/>
      <path class="cls-5" d="m29.14,22.08c-.2.27-.43.52-.78.61.23-.24.44-.51.78-.61Z"/>
      <path class="cls-5" d="m22.33,20.66s.03.07.02.07c-.2.15-.38.35-.65.4.1-.3.39-.35.62-.47Z"/>
      <path class="cls-5" d="m31.86,19.47c-.17.1-.33.09-.5,0,0-.03.01-.05.02-.08.15,0,.31,0,.46,0,0,.03.01.05.02.08Z"/>
      <path class="cls-5" d="m21.95,34.94s0-.1,0-.15c.14.06.26.13.32.28-.02.01-.04.03-.05.04-.12,0-.18-.11-.26-.17Z"/>
      <path class="cls-7" d="m31.86,19.47s-.01-.05-.02-.08c.24-.03.36.09.39.32-.03,0-.06,0-.09-.01-.04-.14-.14-.21-.28-.23Z"/>
      <path class="cls-5" d="m33.69,21.43c.08,0,.15-.01.23-.02.09,0,.18,0,.22.11-.15-.03-.33.09-.45-.1Z"/>
      <path class="cls-7" d="m31.3,21.92c-.06.2-.24.17-.39.21.09-.14.27-.12.39-.21Z"/>
      <path class="cls-5" d="m34.74,22.7c-.18-.08-.15-.24-.17-.38.04.03.07.07.11.1,0,.02,0,.03.01.05-.02.06,0,.11.05.14,0,.03,0,.06,0,.1Z"/>
      <path class="cls-5" d="m34.96,23.14c-.19-.01-.23-.11-.18-.28.02,0,.04,0,.06.01.04.09.08.18.12.27Z"/>
      <path class="cls-7" d="m31.15,20.76c-.06.12-.17.15-.29.15.04-.16.16-.16.29-.15Z"/>
      <path class="cls-7" d="m31.59,21.26c.03-.12.1-.16.21-.12-.04.1-.12.12-.21.12Z"/>
      <path class="cls-7" d="m27.21,23.36c.04-.09.09-.18.22-.17-.02.12-.09.19-.22.17Z"/>
      <path class="cls-7" d="m32.16,20.38c-.06.1-.16.09-.25.06.06-.11.16-.09.25-.06Z"/>
      <path class="cls-7" d="m31.38,19.39s-.01.05-.02.08c-.07,0-.15,0-.22,0,.05-.1.14-.12.24-.08Z"/>
      <path class="cls-7" d="m32.01,19.9s.05-.06.08-.09c.05,0,.1,0,.15-.01-.03.14-.12.13-.22.1Z"/>
      <path class="cls-7" d="m34.68,22.42s-.07-.07-.11-.1c0-.04,0-.08.01-.13.14.03.1.14.1.23Z"/>
      <path class="cls-5" d="m29.31,34.61c0-.08.01-.15.12-.15-.01.07,0,.17-.12.15Z"/>
      <path class="cls-5" d="m32.23,19.8s-.1,0-.15.01c0-.05.01-.09.06-.11.03,0,.06,0,.09.01,0,.03,0,.06,0,.08Z"/>
      <path class="cls-5" d="m33.2,20.46c-.11.11-.14.03-.17-.07.07,0,.14-.02.17.07Z"/>
      <path class="cls-7" d="m30.97,20.3c.02-.07.05-.1.12-.06-.02.06-.06.07-.12.06Z"/>
      <path class="cls-7" d="m34.75,22.61c-.06-.03-.07-.08-.05-.14.08.02.1.07.05.14Z"/>
      <path class="cls-7" d="m30.33,19.83c-.02.07-.07.09-.14.08.02-.08.06-.1.14-.08Z"/>
      <path class="cls-7" d="m30.91,21.63c.01-.06.04-.11.12-.11,0,.08-.05.1-.12.11Z"/>
      <path class="cls-7" d="m28.77,20.67c-.07.03-.11,0-.14-.05.07-.03.12-.02.14.05Z"/>
      <path class="cls-7" d="m31.79,19.95s.07-.1.13-.04c-.03.06-.08.06-.13.04Z"/>
      <path class="cls-7" d="m34.84,22.87s-.04,0-.06-.01c0-.04.01-.07.02-.11.14,0,.06.07.04.12Z"/>
      <path class="cls-5" d="m34.57,22.2c-.11,0-.07-.06-.04-.12.06.02.06.06.04.12Z"/>
      <path class="cls-6" d="m22.99,21.28c1.73,0,3.46,0,5.19,0,.06.12.18.11.28.14-.02.03-.04.06-.06.1-.23.1-.37.29-.5.48-.03.05-.06.09-.1.14-1.5,0-3,0-4.49,0-.08-.06-.11-.03-.11.05,0,.01,0,.03,0,.04-.11.01-.17.06-.16.18-.04.05-.07.11-.03.17-.07.04-.05.11-.05.18,0,2.72,0,5.43,0,8.15-.11.05-.11.11,0,.16.05.29.12.35.35.38.13.05.27.02.41.02,1.27,0,2.54,0,3.8,0,.18.11.27-.06.38-.14.14-.02.16-.14.16-.24,0-.13.04-.25.06-.37.06-.08.21-.02.24-.15.08,0,.14-.04.18-.1.11-.03.22-.06.34-.08,0,.36.02.72.02,1.08,0,.74.01,1.48.02,2.21-.1.35-.33.58-.66.72-.06-.06-.14-.04-.21-.04-1.61,0-3.23,0-4.84,0-.08,0-.17-.03-.22.07-.04,0-.07,0-.11,0-.31-.15-.58-.34-.72-.67,0-.01-.03-.01-.05-.02.01-.14.03-.27.03-.41,0-3.65,0-7.3,0-10.95.05-.16.02-.31,0-.47.06-.17.11-.35.29-.44.19-.05.36-.17.56-.19Zm4.86,12.12s.03-.04.04-.05l.02-.02c.2-.33.11-.68.06-1.02,0-.1.01-.23-.17-.17-.33,0-.67-.09-.99.07-.09.02-.12.09-.12.16,0,.28,0,.55,0,.83,0,.06.03.1.09.12.02.03.04.05.05.08,0,.06.04.11.1.11.27,0,.55,0,.82,0,.05,0,.06-.06.08-.1Zm-3.67-.15c.16-.26.04-.55.07-.83,0-.06-.02-.11-.09-.12-.02-.12-.1-.16-.21-.18-.87-.15-1.02-.03-1.02.83,0,.06,0,.13,0,.19,0,.1.05.15.12.2.01.02.03.04.04.06,0,.05.03.1.08.1.27,0,.53,0,.8,0,.1,0,.14-.07.17-.15.01-.04.02-.07.04-.11Zm1.9-1c-.07-.1-.17-.13-.29-.13-.24,0-.47,0-.71.01-.19.02-.26.07-.27.27-.01.24,0,.49,0,.74,0,.08.01.15.1.17.04.04.07.08.11.12.19.14.77.14.96,0,.04-.04.07-.08.11-.11.05-.02.1-.06.1-.12,0-.28,0-.55,0-.83,0-.06-.03-.1-.1-.11Z"/>
      <path class="cls-6" d="m28.64,28.47c-.47-.35-.74-.82-.83-1.4-.06-.33-.08-.67,0-1l.02-.11c.14-.18.18-.39.22-.61.05-.11.1-.22.16-.33.14-.04.22-.13.22-.28.13-.18.29-.34.48-.47.09.04.11-.02.12-.09.21-.11.41-.22.62-.33.04,0,.07,0,.11,0,.24.11.49.06.74.03.12.05.24.1.36.15.03.07.07.11.15.06.1.09.2.17.3.26,0,.09.02.15.11.17.07.09.15.19.22.28.03.17.16.31.15.5,0,.24,0,.48.03.72.01.17-.07.33-.02.5-.03.47-.27.86-.55,1.22-.23.14-.42.32-.55.55-.15.11-.3.22-.45.33-.1,0-.2-.03-.27.08-.05,0-.1,0-.16,0-.22-.04-.44-.02-.66-.02-.18-.05-.36-.08-.51-.2Z"/>
      <path class="cls-5" d="m22.14,22.37c0,3.65,0,7.3,0,10.95,0,.14-.02.27-.03.41,0,.04-.01.08-.02.12-.13-.04-.09-.14-.09-.23,0-3.68,0-7.37,0-11.05,0-.07-.01-.15.05-.21.03,0,.06,0,.09.01Z"/>
      <path class="cls-5" d="m22.96,30.91c0-2.72,0-5.43,0-8.15,0-.06-.02-.13.05-.18.16.07.09.21.09.31,0,2.6,0,5.2,0,7.81,0,.28-.01.54.22.75-.24-.03-.3-.1-.35-.38.05-.05.05-.11,0-.16Z"/>
      <path class="cls-7" d="m22.99,34.42c.05-.1.14-.07.22-.07,1.61,0,3.23,0,4.84,0,.07,0,.15-.02.21.04-.04.09-.12.06-.19.06-1.62,0-3.25,0-4.87,0-.07,0-.15.02-.21-.04Z"/>
      <path class="cls-5" d="m26.75,24.3c-.01.08-.12.12-.09.22-.2.35-.59.54-.91.55-.25,0-.42.11-.63.16-.05.01-.12.03-.15-.02-.04-.07.03-.12.08-.15.18-.12.36-.24.55-.36.05.18.14.09.22.03.25-.17.49-.34.74-.52.02.13.12.08.2.09Z"/>
      <path class="cls-5" d="m23.32,22.14c1.5,0,3,0,4.49,0,0,.12-.1.11-.18.11-1.39,0-2.77,0-4.16,0-.06,0-.11,0-.15-.05,0-.02,0-.04,0-.06Z"/>
      <path class="cls-5" d="m28.92,33.68c0-.74,0-1.48-.02-2.21,0-.36-.01-.72-.02-1.08,0-.08-.06-.08-.12-.08,0-.08.04-.12.12-.11.07,0,.12.04.14.11.01.06.01.13.01.19,0,.97,0,1.94,0,2.91,0,.1.06.24-.11.27Z"/>
      <path class="cls-7" d="m31.8,26.52c-.05-.17.03-.33.02-.5-.02-.24-.02-.48-.03-.72.19.29.19.99,0,1.22Z"/>
      <path class="cls-7" d="m22.08,33.85s.01-.08.02-.12c.02,0,.05,0,.05.02.14.33.41.52.72.67-.28.09-.45-.09-.61-.27-.08-.09-.12-.2-.19-.3Z"/>
      <path class="cls-5" d="m27.8,26.08c-.08.33-.05.67,0,1-.04,0-.08,0-.11-.02-.14-.14-.07-.84.1-.98Z"/>
      <path class="cls-7" d="m30.69,28.29c.13-.24.32-.42.55-.55-.09.27-.25.49-.55.55Z"/>
      <path class="cls-7" d="m28.13,30.73c-.02.12-.06.24-.06.37,0,.11-.01.22-.16.24-.01-.02-.02-.04-.03-.06,0-.04.02-.07.03-.11.05-.03.05-.07.03-.11.01-.11.02-.22.03-.34.05,0,.1,0,.15,0Z"/>
      <path class="cls-7" d="m27.91,22c.13-.2.27-.38.5-.48-.11.22-.24.42-.5.48Z"/>
      <path class="cls-7" d="m30.49,23.89c-.25.03-.5.08-.74-.03,0-.01,0-.03,0-.04.24-.04.48-.02.72,0,0,.03.01.05.02.08Z"/>
      <path class="cls-5" d="m22.99,21.28c-.2.02-.37.14-.56.19.09-.26.31-.33.56-.19Z"/>
      <path class="cls-7" d="m28.05,25.36c-.04.22-.08.43-.22.61,0-.23.04-.45.22-.61Z"/>
      <path class="cls-7" d="m29.16,28.68c.22,0,.44-.02.66.02-.22.2-.45.09-.68.04,0-.02.01-.04.02-.07Z"/>
      <path class="cls-5" d="m35.63,27.19c-.2,0-.41,0-.61,0,.15-.16.46-.16.61,0Z"/>
      <path class="cls-5" d="m29.16,28.68s-.01.04-.02.07c-.22,0-.44.02-.5-.27.15.12.34.15.51.2Z"/>
      <path class="cls-5" d="m30.49,23.89s-.01-.05-.02-.08c.17.02.36,0,.45.2-.02,0-.04.02-.07.03-.12-.05-.24-.1-.36-.15Z"/>
      <path class="cls-5" d="m28.13,30.73c-.05,0-.1,0-.15,0,.11-.1.2-.27.39-.16-.03.13-.17.08-.24.15Z"/>
      <path class="cls-7" d="m22.14,22.37s-.06,0-.09-.01c.04-.15-.08-.33.09-.46.03.16.05.31,0,.47Z"/>
      <path class="cls-5" d="m31.64,24.81c-.07-.09-.15-.19-.22-.28,0-.04,0-.08,0-.12.17.08.23.21.21.4Z"/>
      <path class="cls-5" d="m27.88,31.29s.02.04.03.06c-.12.08-.2.24-.38.14.1-.09.22-.16.35-.19Z"/>
      <path class="cls-7" d="m28.42,24.75c0,.15-.07.24-.22.28.02-.13.07-.25.22-.28Z"/>
      <path class="cls-7" d="m28.47,21.42c-.1-.04-.23-.02-.28-.14.14-.04.26-.03.28.14Z"/>
      <path class="cls-7" d="m28.76,30.3c.06,0,.11,0,.12.08-.11.03-.22.06-.34.08.01-.14.16-.08.22-.17Z"/>
      <path class="cls-5" d="m29.98,28.7c.07-.11.17-.08.27-.08-.04.19-.16.13-.27.08Z"/>
      <path class="cls-5" d="m23.04,22.42c0-.12.06-.17.16-.18,0,.12-.05.17-.16.18Z"/>
      <path class="cls-7" d="m31.42,24.41s0,.08,0,.12c-.09-.02-.12-.08-.11-.17.04.02.08.04.12.05Z"/>
      <path class="cls-5" d="m21.77,34.57c-.07-.03-.12-.08-.1-.17.1.01.11.09.1.17Z"/>
      <path class="cls-5" d="m27.94,31.07s.02.09-.03.11c-.06-.06-.03-.09.03-.11Z"/>
      <path class="cls-7" d="m29.02,24.18c-.02.07-.03.13-.12.09.01-.07.06-.09.12-.09Z"/>
      <path class="cls-5" d="m29.76,23.82s0,.03,0,.04c-.04,0-.07,0-.11,0,.02-.08.04-.13.12-.04Z"/>
      <path class="cls-5" d="m21.6,34.23s-.06-.06-.05-.11c.07.01.12.04.05.11Z"/>
      <path class="cls-7" d="m23.32,22.14s0,.04,0,.06c-.04,0-.08,0-.11-.01,0-.09.04-.12.11-.05Z"/>
      <path class="cls-7" d="m30.86,24.03s.04-.02.07-.03c.04.02.08.04.08.09-.08.04-.12,0-.15-.06Z"/>
      <path class="cls-2" d="m26.85,33.38s-.04-.05-.05-.08c.04-.33-.03-.67.03-1,.34-.09.68-.06,1.03-.05.05.35-.05.72.06,1.07,0,0-.02.02-.02.02-.31-.06-.61-.1-.92.02l-.13.03Z"/>
      <path class="cls-5" d="m23.06,33.34c-.07-.05-.13-.1-.12-.2,0-.06,0-.13,0-.19,0-.87.15-.99,1.02-.83.11.02.19.06.21.18-.01,0-.03,0-.04,0-.25-.07-.51-.04-.76-.06-.2-.01-.28.05-.27.26.02.26,0,.53,0,.8-.01.02-.02.03-.04.05Z"/>
      <path class="cls-5" d="m27.91,33.32c-.11-.35,0-.71-.06-1.07v-.02s.08.04.12.06c.04.35.13.69-.06,1.02Z"/>
      <path class="cls-7" d="m24.92,33.3c-.09-.03-.1-.1-.1-.17,0-.25,0-.49,0-.74,0-.19.08-.25.27-.27-.02.04-.04.08-.06.11-.21.32-.08.66-.08,1-.01.02-.02.04-.03.06Z"/>
      <path class="cls-5" d="m24.92,33.3s.02-.04.03-.06c.39.06.78.19,1.13-.11,0,.06,0,.11.01.17-.04.04-.07.08-.11.11-.32,0-.64,0-.96,0-.04-.04-.07-.08-.11-.12Z"/>
      <path class="cls-5" d="m25.03,32.23s.04-.08.06-.11c.24,0,.47,0,.71-.01.12,0,.22.03.29.13,0,.06,0,.11,0,.17-.16-.16-.35-.19-.56-.17-.16.01-.32,0-.49,0Z"/>
      <path class="cls-5" d="m27.86,32.25c-.34-.01-.69-.05-1.03.05,0-.03,0-.07,0-.1.32-.16.66-.06.99-.07.02.04.04.07.06.11v.02Z"/>
      <path class="cls-7" d="m26.82,32.19s0,.07,0,.1c-.06.33,0,.67-.03,1-.06-.02-.09-.06-.09-.12,0-.28,0-.55,0-.83,0-.08.03-.15.12-.16Z"/>
      <path class="cls-5" d="m23.1,33.4s-.03-.04-.04-.06c.01-.02.02-.03.04-.05.34-.02.69.05,1.03-.05.02,0,.04,0,.06,0-.01.04-.02.07-.04.11-.35.09-.7.05-1.05.05Z"/>
      <path class="cls-7" d="m23.1,33.4c.35,0,.7.04,1.05-.05-.03.08-.08.15-.17.15-.27,0-.53,0-.8,0-.05,0-.08-.04-.08-.1Z"/>
      <path class="cls-7" d="m26.08,32.41c0-.06,0-.11,0-.17.07,0,.1.05.1.11,0,.28,0,.55,0,.83,0,.06-.04.1-.1.12,0-.06,0-.11-.01-.17,0-.24,0-.48,0-.72Z"/>
      <path class="cls-7" d="m26.85,33.38s.08-.02.13-.03c.29.1.58.03.88.04-.01.04-.02.1-.08.1-.27,0-.55,0-.82,0-.06,0-.09-.05-.1-.11Z"/>
      <path class="cls-7" d="m25.03,33.41c.32,0,.64,0,.96,0-.18.14-.77.14-.96,0Z"/>
      <path class="cls-7" d="m24.19,33.24s-.04,0-.06,0c.04-.32.04-.63,0-.95.01,0,.03,0,.04,0,.07,0,.1.06.09.12-.03.28.09.57-.07.83Z"/>
      <path class="cls-5" d="m27.85,33.39c-.29,0-.59.06-.88-.04.3-.12.61-.08.92-.02-.01.02-.03.04-.04.05Z"/>
      <path class="cls-7" d="m27.87,32.23s-.04-.07-.06-.11c.18-.06.16.07.17.17-.04-.02-.07-.04-.11-.06Z"/>
      <path class="cls-7" d="m22.96,30.91c.05.05.05.11,0,.16-.12-.05-.12-.11,0-.16Z"/>
      <path class="cls-2" d="m24.13,32.29c.05.32.04.63,0,.95-.34.1-.69.03-1.03.05,0-.27.01-.53,0-.8-.01-.21.07-.27.27-.26.25.01.51-.01.76.06Z"/>
      <path class="cls-2" d="m26.08,32.41c0,.24,0,.48,0,.72-.35.3-.74.17-1.13.11,0-.33-.13-.68.08-1,.16,0,.33.01.49,0,.21-.02.4.01.56.17Z"/>
    </g>
  </g>
</svg>