<?xml version="1.0" encoding="UTF-8"?>
<svg id="Calque_1" data-name="Calque 1" xmlns="http://www.w3.org/2000/svg" viewBox="0 0 54 54">
  <defs>
    <style>
      .cls-1 {
        fill: #00c2f6;
      }

      .cls-2 {
        fill: #eaf9fd;
      }

      .cls-3 {
        fill: #fff;
        fill-rule: evenodd;
      }
    </style>
  </defs>
  <path class="cls-3" d="m27,48.54c11.9,0,21.54-9.64,21.54-21.54S38.9,5.46,27,5.46,5.46,15.1,5.46,27s9.64,21.54,21.54,21.54Z"/>
  <path class="cls-2" d="m49.2,27c0,12.26-9.94,22.2-22.2,22.2S4.8,39.26,4.8,27,14.74,4.8,27,4.8s22.2,9.94,22.2,22.2Z"/>
  <path class="cls-1" d="m35.61,16.3h-18.36c-.62,0-1.14.52-1.14,1.14v2.05c0,.64.52,1.14,1.14,1.14h18.36c.64,0,1.14-.52,1.16-1.14v-2.03c0-.64-.52-1.16-1.16-1.16Zm0,11.39h-18.36c-.3,0-.59.12-.81.33s-.33.5-.33.81v2.05c0,.64.52,1.14,1.14,1.14h18.36c.64,0,1.14-.5,1.16-1.14v-2.05c0-.64-.52-1.14-1.16-1.14Zm-8.03,5.68h-10.34c-.3,0-.59.12-.81.33-.21.21-.33.5-.33.81v2.05c0,.64.52,1.14,1.14,1.14h10.32c.64,0,1.14-.52,1.14-1.14v-2.05c.01-.62-.49-1.14-1.13-1.14Zm9.18-11.38h-19.52c-.3,0-.59.12-.81.33s-.33.5-.33.81v2.05c0,.64.52,1.14,1.14,1.14h19.51c.64,0,1.14-.52,1.14-1.14v-2.05c.01-.62-.5-1.14-1.13-1.14Z"/>
</svg>