<?xml version="1.0" encoding="UTF-8"?>
<svg id="Calque_1" data-name="Calque 1" xmlns="http://www.w3.org/2000/svg" viewBox="0 0 54 54">
  <defs>
    <style>
      .cls-1 {
        fill: #6772e5;
      }

      .cls-2 {
        fill: #fff;
        fill-rule: evenodd;
      }
    </style>
  </defs>
  <path class="cls-2" d="m51,27c0,13.25-10.75,24-24,24S3,40.25,3,27,13.75,3,27,3s24,10.75,24,24Zm-24,22.05c12.18,0,22.05-9.87,22.05-22.05S39.18,4.95,27,4.95,4.95,14.82,4.95,27s9.87,22.05,22.05,22.05Z"/>
  <path class="cls-1" d="m49.05,27c0,12.18-9.87,22.05-22.05,22.05S4.95,39.18,4.95,27,14.82,4.95,27,4.95s22.05,9.87,22.05,22.05Z"/>
  <path class="cls-2" d="m25.56,22.96c0-.86.72-1.19,1.9-1.19,1.7,0,3.84.51,5.54,1.41v-5.16c-1.86-.73-3.69-1.01-5.54-1.01-4.54,0-7.56,2.33-7.56,6.22,0,6.07,8.49,5.1,8.49,7.71,0,1.01-.89,1.34-2.15,1.34-1.86,0-4.22-.75-6.1-1.76v5.23c2.08.88,4.18,1.25,6.1,1.25,4.65,0,7.85-2.26,7.85-6.2-.02-6.55-8.54-5.38-8.54-7.85Z"/>
</svg>